0
SECTION
2
HEADER
9
$INSUNITS
70
4
9
$INSBASE
10
0.0
20
0.0
30
0.0
9
$EXTMIN
10
0
20
0
9
$EXTMAX
10
290.72499999999997
20
128.8
0
ENDSEC
0
SECTION
2
TABLES
0
TABLE
2
LTYPE
70
1
0
LTYPE
2
CONTINUOUS
70
64
3
Solid line
72
65
73
0
40
0.0
0
ENDTAB
0
TABLE
2
LAYER
70
1
0
LAYER
2
Layer1
70
64
62
7
6
CONTINUOUS
0
ENDTAB
0
TABLE
2
STYLE
70
0
0
ENDTAB
0
TABLE
2
VIEW
70
0
0
ENDTAB
0
ENDSEC
0
SECTION
2
BLOCKS
0
ENDSEC
0
SECTION
2
ENTITIES
0
POLYLINE
5
10
8
Layer1
66
1
10
0.0
20
0.0
30
0.0
70
1
0
VERTEX
5
11
8
Layer1
10
0.0000
20
0.0000
30
0.0
0
VERTEX
5
12
8
Layer1
10
290.7250
20
0.0000
30
0.0
0
VERTEX
5
13
8
Layer1
10
290.7250
20
128.8000
30
0.0
0
VERTEX
5
14
8
Layer1
10
0.0000
20
128.8000
30
0.0
0
VERTEX
5
15
8
Layer1
10
0.0000
20
0.0000
30
0.0
0
SEQEND
5
16
8
Layer1
0
POLYLINE
5
17
8
Layer1
66
1
10
0.0
20
0.0
30
0.0
70
1
0
VERTEX
5
18
8
Layer1
10
19.0250
20
101.2500
30
0.0
0
VERTEX
5
19
8
Layer1
10
19.8250
20
101.2500
30
0.0
0
VERTEX
5
1a
8
Layer1
10
19.8250
20
113.2500
30
0.0
0
VERTEX
5
1b
8
Layer1
10
19.0250
20
113.2500
30
0.0
0
VERTEX
5
1c
8
Layer1
10
19.0250
20
114.2500
30
0.0
0
VERTEX
5
1d
8
Layer1
10
5.0250
20
114.2500
30
0.0
0
VERTEX
5
1e
8
Layer1
10
5.0250
20
113.2500
30
0.0
0
VERTEX
5
1f
8
Layer1
10
4.2250
20
113.2500
30
0.0
0
VERTEX
5
20
8
Layer1
10
4.2250
20
101.2500
30
0.0
0
VERTEX
5
21
8
Layer1
10
5.0250
20
101.2500
30
0.0
0
VERTEX
5
22
8
Layer1
10
5.0250
20
100.2500
30
0.0
0
VERTEX
5
23
8
Layer1
10
19.0250
20
100.2500
30
0.0
0
VERTEX
5
24
8
Layer1
10
19.0250
20
101.2500
30
0.0
0
SEQEND
5
25
8
Layer1
0
POLYLINE
5
26
8
Layer1
66
1
10
0.0
20
0.0
30
0.0
70
1
0
VERTEX
5
27
8
Layer1
10
38.0750
20
101.2500
30
0.0
0
VERTEX
5
28
8
Layer1
10
38.8750
20
101.2500
30
0.0
0
VERTEX
5
29
8
Layer1
10
38.8750
20
113.2500
30
0.0
0
VERTEX
5
2a
8
Layer1
10
38.0750
20
113.2500
30
0.0
0
VERTEX
5
2b
8
Layer1
10
38.0750
20
114.2500
30
0.0
0
VERTEX
5
2c
8
Layer1
10
24.0750
20
114.2500
30
0.0
0
VERTEX
5
2d
8
Layer1
10
24.0750
20
113.2500
30
0.0
0
VERTEX
5
2e
8
Layer1
10
23.2750
20
113.2500
30
0.0
0
VERTEX
5
2f
8
Layer1
10
23.2750
20
101.2500
30
0.0
0
VERTEX
5
30
8
Layer1
10
24.0750
20
101.2500
30
0.0
0
VERTEX
5
31
8
Layer1
10
24.0750
20
100.2500
30
0.0
0
VERTEX
5
32
8
Layer1
10
38.0750
20
100.2500
30
0.0
0
VERTEX
5
33
8
Layer1
10
38.0750
20
101.2500
30
0.0
0
SEQEND
5
34
8
Layer1
0
POLYLINE
5
35
8
Layer1
66
1
10
0.0
20
0.0
30
0.0
70
1
0
VERTEX
5
36
8
Layer1
10
57.1250
20
101.2500
30
0.0
0
VERTEX
5
37
8
Layer1
10
57.9250
20
101.2500
30
0.0
0
VERTEX
5
38
8
Layer1
10
57.9250
20
113.2500
30
0.0
0
VERTEX
5
39
8
Layer1
10
57.1250
20
113.2500
30
0.0
0
VERTEX
5
3a
8
Layer1
10
57.1250
20
114.2500
30
0.0
0
VERTEX
5
3b
8
Layer1
10
43.1250
20
114.2500
30
0.0
0
VERTEX
5
3c
8
Layer1
10
43.1250
20
113.2500
30
0.0
0
VERTEX
5
3d
8
Layer1
10
42.3250
20
113.2500
30
0.0
0
VERTEX
5
3e
8
Layer1
10
42.3250
20
101.2500
30
0.0
0
VERTEX
5
3f
8
Layer1
10
43.1250
20
101.2500
30
0.0
0
VERTEX
5
40
8
Layer1
10
43.1250
20
100.2500
30
0.0
0
VERTEX
5
41
8
Layer1
10
57.1250
20
100.2500
30
0.0
0
VERTEX
5
42
8
Layer1
10
57.1250
20
101.2500
30
0.0
0
SEQEND
5
43
8
Layer1
0
POLYLINE
5
44
8
Layer1
66
1
10
0.0
20
0.0
30
0.0
70
1
0
VERTEX
5
45
8
Layer1
10
76.1750
20
101.2500
30
0.0
0
VERTEX
5
46
8
Layer1
10
76.9750
20
101.2500
30
0.0
0
VERTEX
5
47
8
Layer1
10
76.9750
20
113.2500
30
0.0
0
VERTEX
5
48
8
Layer1
10
76.1750
20
113.2500
30
0.0
0
VERTEX
5
49
8
Layer1
10
76.1750
20
114.2500
30
0.0
0
VERTEX
5
4a
8
Layer1
10
62.1750
20
114.2500
30
0.0
0
VERTEX
5
4b
8
Layer1
10
62.1750
20
113.2500
30
0.0
0
VERTEX
5
4c
8
Layer1
10
61.3750
20
113.2500
30
0.0
0
VERTEX
5
4d
8
Layer1
10
61.3750
20
101.2500
30
0.0
0
VERTEX
5
4e
8
Layer1
10
62.1750
20
101.2500
30
0.0
0
VERTEX
5
4f
8
Layer1
10
62.1750
20
100.2500
30
0.0
0
VERTEX
5
50
8
Layer1
10
76.1750
20
100.2500
30
0.0
0
VERTEX
5
51
8
Layer1
10
76.1750
20
101.2500
30
0.0
0
SEQEND
5
52
8
Layer1
0
POLYLINE
5
53
8
Layer1
66
1
10
0.0
20
0.0
30
0.0
70
1
0
VERTEX
5
54
8
Layer1
10
95.2250
20
101.2500
30
0.0
0
VERTEX
5
55
8
Layer1
10
96.0250
20
101.2500
30
0.0
0
VERTEX
5
56
8
Layer1
10
96.0250
20
113.2500
30
0.0
0
VERTEX
5
57
8
Layer1
10
95.2250
20
113.2500
30
0.0
0
VERTEX
5
58
8
Layer1
10
95.2250
20
114.2500
30
0.0
0
VERTEX
5
59
8
Layer1
10
81.2250
20
114.2500
30
0.0
0
VERTEX
5
5a
8
Layer1
10
81.2250
20
113.2500
30
0.0
0
VERTEX
5
5b
8
Layer1
10
80.4250
20
113.2500
30
0.0
0
VERTEX
5
5c
8
Layer1
10
80.4250
20
101.2500
30
0.0
0
VERTEX
5
5d
8
Layer1
10
81.2250
20
101.2500
30
0.0
0
VERTEX
5
5e
8
Layer1
10
81.2250
20
100.2500
30
0.0
0
VERTEX
5
5f
8
Layer1
10
95.2250
20
100.2500
30
0.0
0
VERTEX
5
60
8
Layer1
10
95.2250
20
101.2500
30
0.0
0
SEQEND
5
61
8
Layer1
0
POLYLINE
5
62
8
Layer1
66
1
10
0.0
20
0.0
30
0.0
70
1
0
VERTEX
5
63
8
Layer1
10
114.2750
20
101.2500
30
0.0
0
VERTEX
5
64
8
Layer1
10
115.0750
20
101.2500
30
0.0
0
VERTEX
5
65
8
Layer1
10
115.0750
20
113.2500
30
0.0
0
VERTEX
5
66
8
Layer1
10
114.2750
20
113.2500
30
0.0
0
VERTEX
5
67
8
Layer1
10
114.2750
20
114.2500
30
0.0
0
VERTEX
5
68
8
Layer1
10
100.2750
20
114.2500
30
0.0
0
VERTEX
5
69
8
Layer1
10
100.2750
20
113.2500
30
0.0
0
VERTEX
5
6a
8
Layer1
10
99.4750
20
113.2500
30
0.0
0
VERTEX
5
6b
8
Layer1
10
99.4750
20
101.2500
30
0.0
0
VERTEX
5
6c
8
Layer1
10
100.2750
20
101.2500
30
0.0
0
VERTEX
5
6d
8
Layer1
10
100.2750
20
100.2500
30
0.0
0
VERTEX
5
6e
8
Layer1
10
114.2750
20
100.2500
30
0.0
0
VERTEX
5
6f
8
Layer1
10
114.2750
20
101.2500
30
0.0
0
SEQEND
5
70
8
Layer1
0
POLYLINE
5
71
8
Layer1
66
1
10
0.0
20
0.0
30
0.0
70
1
0
VERTEX
5
72
8
Layer1
10
133.3250
20
101.2500
30
0.0
0
VERTEX
5
73
8
Layer1
10
134.1250
20
101.2500
30
0.0
0
VERTEX
5
74
8
Layer1
10
134.1250
20
113.2500
30
0.0
0
VERTEX
5
75
8
Layer1
10
133.3250
20
113.2500
30
0.0
0
VERTEX
5
76
8
Layer1
10
133.3250
20
114.2500
30
0.0
0
VERTEX
5
77
8
Layer1
10
119.3250
20
114.2500
30
0.0
0
VERTEX
5
78
8
Layer1
10
119.3250
20
113.2500
30
0.0
0
VERTEX
5
79
8
Layer1
10
118.5250
20
113.2500
30
0.0
0
VERTEX
5
7a
8
Layer1
10
118.5250
20
101.2500
30
0.0
0
VERTEX
5
7b
8
Layer1
10
119.3250
20
101.2500
30
0.0
0
VERTEX
5
7c
8
Layer1
10
119.3250
20
100.2500
30
0.0
0
VERTEX
5
7d
8
Layer1
10
133.3250
20
100.2500
30
0.0
0
VERTEX
5
7e
8
Layer1
10
133.3250
20
101.2500
30
0.0
0
SEQEND
5
7f
8
Layer1
0
POLYLINE
5
80
8
Layer1
66
1
10
0.0
20
0.0
30
0.0
70
1
0
VERTEX
5
81
8
Layer1
10
152.3750
20
101.2500
30
0.0
0
VERTEX
5
82
8
Layer1
10
153.1750
20
101.2500
30
0.0
0
VERTEX
5
83
8
Layer1
10
153.1750
20
113.2500
30
0.0
0
VERTEX
5
84
8
Layer1
10
152.3750
20
113.2500
30
0.0
0
VERTEX
5
85
8
Layer1
10
152.3750
20
114.2500
30
0.0
0
VERTEX
5
86
8
Layer1
10
138.3750
20
114.2500
30
0.0
0
VERTEX
5
87
8
Layer1
10
138.3750
20
113.2500
30
0.0
0
VERTEX
5
88
8
Layer1
10
137.5750
20
113.2500
30
0.0
0
VERTEX
5
89
8
Layer1
10
137.5750
20
101.2500
30
0.0
0
VERTEX
5
8a
8
Layer1
10
138.3750
20
101.2500
30
0.0
0
VERTEX
5
8b
8
Layer1
10
138.3750
20
100.2500
30
0.0
0
VERTEX
5
8c
8
Layer1
10
152.3750
20
100.2500
30
0.0
0
VERTEX
5
8d
8
Layer1
10
152.3750
20
101.2500
30
0.0
0
SEQEND
5
8e
8
Layer1
0
POLYLINE
5
8f
8
Layer1
66
1
10
0.0
20
0.0
30
0.0
70
1
0
VERTEX
5
90
8
Layer1
10
171.4250
20
101.2500
30
0.0
0
VERTEX
5
91
8
Layer1
10
172.2250
20
101.2500
30
0.0
0
VERTEX
5
92
8
Layer1
10
172.2250
20
113.2500
30
0.0
0
VERTEX
5
93
8
Layer1
10
171.4250
20
113.2500
30
0.0
0
VERTEX
5
94
8
Layer1
10
171.4250
20
114.2500
30
0.0
0
VERTEX
5
95
8
Layer1
10
157.4250
20
114.2500
30
0.0
0
VERTEX
5
96
8
Layer1
10
157.4250
20
113.2500
30
0.0
0
VERTEX
5
97
8
Layer1
10
156.6250
20
113.2500
30
0.0
0
VERTEX
5
98
8
Layer1
10
156.6250
20
101.2500
30
0.0
0
VERTEX
5
99
8
Layer1
10
157.4250
20
101.2500
30
0.0
0
VERTEX
5
9a
8
Layer1
10
157.4250
20
100.2500
30
0.0
0
VERTEX
5
9b
8
Layer1
10
171.4250
20
100.2500
30
0.0
0
VERTEX
5
9c
8
Layer1
10
171.4250
20
101.2500
30
0.0
0
SEQEND
5
9d
8
Layer1
0
POLYLINE
5
9e
8
Layer1
66
1
10
0.0
20
0.0
30
0.0
70
1
0
VERTEX
5
9f
8
Layer1
10
190.4750
20
101.2500
30
0.0
0
VERTEX
5
a0
8
Layer1
10
191.2750
20
101.2500
30
0.0
0
VERTEX
5
a1
8
Layer1
10
191.2750
20
113.2500
30
0.0
0
VERTEX
5
a2
8
Layer1
10
190.4750
20
113.2500
30
0.0
0
VERTEX
5
a3
8
Layer1
10
190.4750
20
114.2500
30
0.0
0
VERTEX
5
a4
8
Layer1
10
176.4750
20
114.2500
30
0.0
0
VERTEX
5
a5
8
Layer1
10
176.4750
20
113.2500
30
0.0
0
VERTEX
5
a6
8
Layer1
10
175.6750
20
113.2500
30
0.0
0
VERTEX
5
a7
8
Layer1
10
175.6750
20
101.2500
30
0.0
0
VERTEX
5
a8
8
Layer1
10
176.4750
20
101.2500
30
0.0
0
VERTEX
5
a9
8
Layer1
10
176.4750
20
100.2500
30
0.0
0
VERTEX
5
aa
8
Layer1
10
190.4750
20
100.2500
30
0.0
0
VERTEX
5
ab
8
Layer1
10
190.4750
20
101.2500
30
0.0
0
SEQEND
5
ac
8
Layer1
0
POLYLINE
5
ad
8
Layer1
66
1
10
0.0
20
0.0
30
0.0
70
1
0
VERTEX
5
ae
8
Layer1
10
209.5250
20
101.2500
30
0.0
0
VERTEX
5
af
8
Layer1
10
210.3250
20
101.2500
30
0.0
0
VERTEX
5
b0
8
Layer1
10
210.3250
20
113.2500
30
0.0
0
VERTEX
5
b1
8
Layer1
10
209.5250
20
113.2500
30
0.0
0
VERTEX
5
b2
8
Layer1
10
209.5250
20
114.2500
30
0.0
0
VERTEX
5
b3
8
Layer1
10
195.5250
20
114.2500
30
0.0
0
VERTEX
5
b4
8
Layer1
10
195.5250
20
113.2500
30
0.0
0
VERTEX
5
b5
8
Layer1
10
194.7250
20
113.2500
30
0.0
0
VERTEX
5
b6
8
Layer1
10
194.7250
20
101.2500
30
0.0
0
VERTEX
5
b7
8
Layer1
10
195.5250
20
101.2500
30
0.0
0
VERTEX
5
b8
8
Layer1
10
195.5250
20
100.2500
30
0.0
0
VERTEX
5
b9
8
Layer1
10
209.5250
20
100.2500
30
0.0
0
VERTEX
5
ba
8
Layer1
10
209.5250
20
101.2500
30
0.0
0
SEQEND
5
bb
8
Layer1
0
POLYLINE
5
bc
8
Layer1
66
1
10
0.0
20
0.0
30
0.0
70
1
0
VERTEX
5
bd
8
Layer1
10
228.5750
20
101.2500
30
0.0
0
VERTEX
5
be
8
Layer1
10
229.3750
20
101.2500
30
0.0
0
VERTEX
5
bf
8
Layer1
10
229.3750
20
113.2500
30
0.0
0
VERTEX
5
c0
8
Layer1
10
228.5750
20
113.2500
30
0.0
0
VERTEX
5
c1
8
Layer1
10
228.5750
20
114.2500
30
0.0
0
VERTEX
5
c2
8
Layer1
10
214.5750
20
114.2500
30
0.0
0
VERTEX
5
c3
8
Layer1
10
214.5750
20
113.2500
30
0.0
0
VERTEX
5
c4
8
Layer1
10
213.7750
20
113.2500
30
0.0
0
VERTEX
5
c5
8
Layer1
10
213.7750
20
101.2500
30
0.0
0
VERTEX
5
c6
8
Layer1
10
214.5750
20
101.2500
30
0.0
0
VERTEX
5
c7
8
Layer1
10
214.5750
20
100.2500
30
0.0
0
VERTEX
5
c8
8
Layer1
10
228.5750
20
100.2500
30
0.0
0
VERTEX
5
c9
8
Layer1
10
228.5750
20
101.2500
30
0.0
0
SEQEND
5
ca
8
Layer1
0
POLYLINE
5
cb
8
Layer1
66
1
10
0.0
20
0.0
30
0.0
70
1
0
VERTEX
5
cc
8
Layer1
10
247.6250
20
101.2500
30
0.0
0
VERTEX
5
cd
8
Layer1
10
248.4250
20
101.2500
30
0.0
0
VERTEX
5
ce
8
Layer1
10
248.4250
20
113.2500
30
0.0
0
VERTEX
5
cf
8
Layer1
10
247.6250
20
113.2500
30
0.0
0
VERTEX
5
d0
8
Layer1
10
247.6250
20
114.2500
30
0.0
0
VERTEX
5
d1
8
Layer1
10
233.6250
20
114.2500
30
0.0
0
VERTEX
5
d2
8
Layer1
10
233.6250
20
113.2500
30
0.0
0
VERTEX
5
d3
8
Layer1
10
232.8250
20
113.2500
30
0.0
0
VERTEX
5
d4
8
Layer1
10
232.8250
20
101.2500
30
0.0
0
VERTEX
5
d5
8
Layer1
10
233.6250
20
101.2500
30
0.0
0
VERTEX
5
d6
8
Layer1
10
233.6250
20
100.2500
30
0.0
0
VERTEX
5
d7
8
Layer1
10
247.6250
20
100.2500
30
0.0
0
VERTEX
5
d8
8
Layer1
10
247.6250
20
101.2500
30
0.0
0
SEQEND
5
d9
8
Layer1
0
POLYLINE
5
da
8
Layer1
66
1
10
0.0
20
0.0
30
0.0
70
1
0
VERTEX
5
db
8
Layer1
10
266.6750
20
101.2500
30
0.0
0
VERTEX
5
dc
8
Layer1
10
267.4750
20
101.2500
30
0.0
0
VERTEX
5
dd
8
Layer1
10
267.4750
20
113.2500
30
0.0
0
VERTEX
5
de
8
Layer1
10
266.6750
20
113.2500
30
0.0
0
VERTEX
5
df
8
Layer1
10
266.6750
20
114.2500
30
0.0
0
VERTEX
5
e0
8
Layer1
10
252.6750
20
114.2500
30
0.0
0
VERTEX
5
e1
8
Layer1
10
252.6750
20
113.2500
30
0.0
0
VERTEX
5
e2
8
Layer1
10
251.8750
20
113.2500
30
0.0
0
VERTEX
5
e3
8
Layer1
10
251.8750
20
101.2500
30
0.0
0
VERTEX
5
e4
8
Layer1
10
252.6750
20
101.2500
30
0.0
0
VERTEX
5
e5
8
Layer1
10
252.6750
20
100.2500
30
0.0
0
VERTEX
5
e6
8
Layer1
10
266.6750
20
100.2500
30
0.0
0
VERTEX
5
e7
8
Layer1
10
266.6750
20
101.2500
30
0.0
0
SEQEND
5
e8
8
Layer1
0
POLYLINE
5
e9
8
Layer1
66
1
10
0.0
20
0.0
30
0.0
70
1
0
VERTEX
5
ea
8
Layer1
10
285.7250
20
101.2500
30
0.0
0
VERTEX
5
eb
8
Layer1
10
286.5250
20
101.2500
30
0.0
0
VERTEX
5
ec
8
Layer1
10
286.5250
20
113.2500
30
0.0
0
VERTEX
5
ed
8
Layer1
10
285.7250
20
113.2500
30
0.0
0
VERTEX
5
ee
8
Layer1
10
285.7250
20
114.2500
30
0.0
0
VERTEX
5
ef
8
Layer1
10
271.7250
20
114.2500
30
0.0
0
VERTEX
5
f0
8
Layer1
10
271.7250
20
113.2500
30
0.0
0
VERTEX
5
f1
8
Layer1
10
270.9250
20
113.2500
30
0.0
0
VERTEX
5
f2
8
Layer1
10
270.9250
20
101.2500
30
0.0
0
VERTEX
5
f3
8
Layer1
10
271.7250
20
101.2500
30
0.0
0
VERTEX
5
f4
8
Layer1
10
271.7250
20
100.2500
30
0.0
0
VERTEX
5
f5
8
Layer1
10
285.7250
20
100.2500
30
0.0
0
VERTEX
5
f6
8
Layer1
10
285.7250
20
101.2500
30
0.0
0
SEQEND
5
f7
8
Layer1
0
POLYLINE
5
f8
8
Layer1
66
1
10
0.0
20
0.0
30
0.0
70
1
0
VERTEX
5
f9
8
Layer1
10
19.0250
20
82.2000
30
0.0
0
VERTEX
5
fa
8
Layer1
10
19.8250
20
82.2000
30
0.0
0
VERTEX
5
fb
8
Layer1
10
19.8250
20
94.2000
30
0.0
0
VERTEX
5
fc
8
Layer1
10
19.0250
20
94.2000
30
0.0
0
VERTEX
5
fd
8
Layer1
10
19.0250
20
95.2000
30
0.0
0
VERTEX
5
fe
8
Layer1
10
5.0250
20
95.2000
30
0.0
0
VERTEX
5
ff
8
Layer1
10
5.0250
20
94.2000
30
0.0
0
VERTEX
5
100
8
Layer1
10
4.2250
20
94.2000
30
0.0
0
VERTEX
5
101
8
Layer1
10
4.2250
20
82.2000
30
0.0
0
VERTEX
5
102
8
Layer1
10
5.0250
20
82.2000
30
0.0
0
VERTEX
5
103
8
Layer1
10
5.0250
20
81.2000
30
0.0
0
VERTEX
5
104
8
Layer1
10
19.0250
20
81.2000
30
0.0
0
VERTEX
5
105
8
Layer1
10
19.0250
20
82.2000
30
0.0
0
SEQEND
5
106
8
Layer1
0
POLYLINE
5
107
8
Layer1
66
1
10
0.0
20
0.0
30
0.0
70
1
0
VERTEX
5
108
8
Layer1
10
38.0750
20
82.2000
30
0.0
0
VERTEX
5
109
8
Layer1
10
38.8750
20
82.2000
30
0.0
0
VERTEX
5
10a
8
Layer1
10
38.8750
20
94.2000
30
0.0
0
VERTEX
5
10b
8
Layer1
10
38.0750
20
94.2000
30
0.0
0
VERTEX
5
10c
8
Layer1
10
38.0750
20
95.2000
30
0.0
0
VERTEX
5
10d
8
Layer1
10
24.0750
20
95.2000
30
0.0
0
VERTEX
5
10e
8
Layer1
10
24.0750
20
94.2000
30
0.0
0
VERTEX
5
10f
8
Layer1
10
23.2750
20
94.2000
30
0.0
0
VERTEX
5
110
8
Layer1
10
23.2750
20
82.2000
30
0.0
0
VERTEX
5
111
8
Layer1
10
24.0750
20
82.2000
30
0.0
0
VERTEX
5
112
8
Layer1
10
24.0750
20
81.2000
30
0.0
0
VERTEX
5
113
8
Layer1
10
38.0750
20
81.2000
30
0.0
0
VERTEX
5
114
8
Layer1
10
38.0750
20
82.2000
30
0.0
0
SEQEND
5
115
8
Layer1
0
POLYLINE
5
116
8
Layer1
66
1
10
0.0
20
0.0
30
0.0
70
1
0
VERTEX
5
117
8
Layer1
10
57.1250
20
82.2000
30
0.0
0
VERTEX
5
118
8
Layer1
10
57.9250
20
82.2000
30
0.0
0
VERTEX
5
119
8
Layer1
10
57.9250
20
94.2000
30
0.0
0
VERTEX
5
11a
8
Layer1
10
57.1250
20
94.2000
30
0.0
0
VERTEX
5
11b
8
Layer1
10
57.1250
20
95.2000
30
0.0
0
VERTEX
5
11c
8
Layer1
10
43.1250
20
95.2000
30
0.0
0
VERTEX
5
11d
8
Layer1
10
43.1250
20
94.2000
30
0.0
0
VERTEX
5
11e
8
Layer1
10
42.3250
20
94.2000
30
0.0
0
VERTEX
5
11f
8
Layer1
10
42.3250
20
82.2000
30
0.0
0
VERTEX
5
120
8
Layer1
10
43.1250
20
82.2000
30
0.0
0
VERTEX
5
121
8
Layer1
10
43.1250
20
81.2000
30
0.0
0
VERTEX
5
122
8
Layer1
10
57.1250
20
81.2000
30
0.0
0
VERTEX
5
123
8
Layer1
10
57.1250
20
82.2000
30
0.0
0
SEQEND
5
124
8
Layer1
0
POLYLINE
5
125
8
Layer1
66
1
10
0.0
20
0.0
30
0.0
70
1
0
VERTEX
5
126
8
Layer1
10
76.1750
20
82.2000
30
0.0
0
VERTEX
5
127
8
Layer1
10
76.9750
20
82.2000
30
0.0
0
VERTEX
5
128
8
Layer1
10
76.9750
20
94.2000
30
0.0
0
VERTEX
5
129
8
Layer1
10
76.1750
20
94.2000
30
0.0
0
VERTEX
5
12a
8
Layer1
10
76.1750
20
95.2000
30
0.0
0
VERTEX
5
12b
8
Layer1
10
62.1750
20
95.2000
30
0.0
0
VERTEX
5
12c
8
Layer1
10
62.1750
20
94.2000
30
0.0
0
VERTEX
5
12d
8
Layer1
10
61.3750
20
94.2000
30
0.0
0
VERTEX
5
12e
8
Layer1
10
61.3750
20
82.2000
30
0.0
0
VERTEX
5
12f
8
Layer1
10
62.1750
20
82.2000
30
0.0
0
VERTEX
5
130
8
Layer1
10
62.1750
20
81.2000
30
0.0
0
VERTEX
5
131
8
Layer1
10
76.1750
20
81.2000
30
0.0
0
VERTEX
5
132
8
Layer1
10
76.1750
20
82.2000
30
0.0
0
SEQEND
5
133
8
Layer1
0
POLYLINE
5
134
8
Layer1
66
1
10
0.0
20
0.0
30
0.0
70
1
0
VERTEX
5
135
8
Layer1
10
95.2250
20
82.2000
30
0.0
0
VERTEX
5
136
8
Layer1
10
96.0250
20
82.2000
30
0.0
0
VERTEX
5
137
8
Layer1
10
96.0250
20
94.2000
30
0.0
0
VERTEX
5
138
8
Layer1
10
95.2250
20
94.2000
30
0.0
0
VERTEX
5
139
8
Layer1
10
95.2250
20
95.2000
30
0.0
0
VERTEX
5
13a
8
Layer1
10
81.2250
20
95.2000
30
0.0
0
VERTEX
5
13b
8
Layer1
10
81.2250
20
94.2000
30
0.0
0
VERTEX
5
13c
8
Layer1
10
80.4250
20
94.2000
30
0.0
0
VERTEX
5
13d
8
Layer1
10
80.4250
20
82.2000
30
0.0
0
VERTEX
5
13e
8
Layer1
10
81.2250
20
82.2000
30
0.0
0
VERTEX
5
13f
8
Layer1
10
81.2250
20
81.2000
30
0.0
0
VERTEX
5
140
8
Layer1
10
95.2250
20
81.2000
30
0.0
0
VERTEX
5
141
8
Layer1
10
95.2250
20
82.2000
30
0.0
0
SEQEND
5
142
8
Layer1
0
POLYLINE
5
143
8
Layer1
66
1
10
0.0
20
0.0
30
0.0
70
1
0
VERTEX
5
144
8
Layer1
10
114.2750
20
82.2000
30
0.0
0
VERTEX
5
145
8
Layer1
10
115.0750
20
82.2000
30
0.0
0
VERTEX
5
146
8
Layer1
10
115.0750
20
94.2000
30
0.0
0
VERTEX
5
147
8
Layer1
10
114.2750
20
94.2000
30
0.0
0
VERTEX
5
148
8
Layer1
10
114.2750
20
95.2000
30
0.0
0
VERTEX
5
149
8
Layer1
10
100.2750
20
95.2000
30
0.0
0
VERTEX
5
14a
8
Layer1
10
100.2750
20
94.2000
30
0.0
0
VERTEX
5
14b
8
Layer1
10
99.4750
20
94.2000
30
0.0
0
VERTEX
5
14c
8
Layer1
10
99.4750
20
82.2000
30
0.0
0
VERTEX
5
14d
8
Layer1
10
100.2750
20
82.2000
30
0.0
0
VERTEX
5
14e
8
Layer1
10
100.2750
20
81.2000
30
0.0
0
VERTEX
5
14f
8
Layer1
10
114.2750
20
81.2000
30
0.0
0
VERTEX
5
150
8
Layer1
10
114.2750
20
82.2000
30
0.0
0
SEQEND
5
151
8
Layer1
0
POLYLINE
5
152
8
Layer1
66
1
10
0.0
20
0.0
30
0.0
70
1
0
VERTEX
5
153
8
Layer1
10
133.3250
20
82.2000
30
0.0
0
VERTEX
5
154
8
Layer1
10
134.1250
20
82.2000
30
0.0
0
VERTEX
5
155
8
Layer1
10
134.1250
20
94.2000
30
0.0
0
VERTEX
5
156
8
Layer1
10
133.3250
20
94.2000
30
0.0
0
VERTEX
5
157
8
Layer1
10
133.3250
20
95.2000
30
0.0
0
VERTEX
5
158
8
Layer1
10
119.3250
20
95.2000
30
0.0
0
VERTEX
5
159
8
Layer1
10
119.3250
20
94.2000
30
0.0
0
VERTEX
5
15a
8
Layer1
10
118.5250
20
94.2000
30
0.0
0
VERTEX
5
15b
8
Layer1
10
118.5250
20
82.2000
30
0.0
0
VERTEX
5
15c
8
Layer1
10
119.3250
20
82.2000
30
0.0
0
VERTEX
5
15d
8
Layer1
10
119.3250
20
81.2000
30
0.0
0
VERTEX
5
15e
8
Layer1
10
133.3250
20
81.2000
30
0.0
0
VERTEX
5
15f
8
Layer1
10
133.3250
20
82.2000
30
0.0
0
SEQEND
5
160
8
Layer1
0
POLYLINE
5
161
8
Layer1
66
1
10
0.0
20
0.0
30
0.0
70
1
0
VERTEX
5
162
8
Layer1
10
152.3750
20
82.2000
30
0.0
0
VERTEX
5
163
8
Layer1
10
153.1750
20
82.2000
30
0.0
0
VERTEX
5
164
8
Layer1
10
153.1750
20
94.2000
30
0.0
0
VERTEX
5
165
8
Layer1
10
152.3750
20
94.2000
30
0.0
0
VERTEX
5
166
8
Layer1
10
152.3750
20
95.2000
30
0.0
0
VERTEX
5
167
8
Layer1
10
138.3750
20
95.2000
30
0.0
0
VERTEX
5
168
8
Layer1
10
138.3750
20
94.2000
30
0.0
0
VERTEX
5
169
8
Layer1
10
137.5750
20
94.2000
30
0.0
0
VERTEX
5
16a
8
Layer1
10
137.5750
20
82.2000
30
0.0
0
VERTEX
5
16b
8
Layer1
10
138.3750
20
82.2000
30
0.0
0
VERTEX
5
16c
8
Layer1
10
138.3750
20
81.2000
30
0.0
0
VERTEX
5
16d
8
Layer1
10
152.3750
20
81.2000
30
0.0
0
VERTEX
5
16e
8
Layer1
10
152.3750
20
82.2000
30
0.0
0
SEQEND
5
16f
8
Layer1
0
POLYLINE
5
170
8
Layer1
66
1
10
0.0
20
0.0
30
0.0
70
1
0
VERTEX
5
171
8
Layer1
10
171.4250
20
82.2000
30
0.0
0
VERTEX
5
172
8
Layer1
10
172.2250
20
82.2000
30
0.0
0
VERTEX
5
173
8
Layer1
10
172.2250
20
94.2000
30
0.0
0
VERTEX
5
174
8
Layer1
10
171.4250
20
94.2000
30
0.0
0
VERTEX
5
175
8
Layer1
10
171.4250
20
95.2000
30
0.0
0
VERTEX
5
176
8
Layer1
10
157.4250
20
95.2000
30
0.0
0
VERTEX
5
177
8
Layer1
10
157.4250
20
94.2000
30
0.0
0
VERTEX
5
178
8
Layer1
10
156.6250
20
94.2000
30
0.0
0
VERTEX
5
179
8
Layer1
10
156.6250
20
82.2000
30
0.0
0
VERTEX
5
17a
8
Layer1
10
157.4250
20
82.2000
30
0.0
0
VERTEX
5
17b
8
Layer1
10
157.4250
20
81.2000
30
0.0
0
VERTEX
5
17c
8
Layer1
10
171.4250
20
81.2000
30
0.0
0
VERTEX
5
17d
8
Layer1
10
171.4250
20
82.2000
30
0.0
0
SEQEND
5
17e
8
Layer1
0
POLYLINE
5
17f
8
Layer1
66
1
10
0.0
20
0.0
30
0.0
70
1
0
VERTEX
5
180
8
Layer1
10
190.4750
20
82.2000
30
0.0
0
VERTEX
5
181
8
Layer1
10
191.2750
20
82.2000
30
0.0
0
VERTEX
5
182
8
Layer1
10
191.2750
20
94.2000
30
0.0
0
VERTEX
5
183
8
Layer1
10
190.4750
20
94.2000
30
0.0
0
VERTEX
5
184
8
Layer1
10
190.4750
20
95.2000
30
0.0
0
VERTEX
5
185
8
Layer1
10
176.4750
20
95.2000
30
0.0
0
VERTEX
5
186
8
Layer1
10
176.4750
20
94.2000
30
0.0
0
VERTEX
5
187
8
Layer1
10
175.6750
20
94.2000
30
0.0
0
VERTEX
5
188
8
Layer1
10
175.6750
20
82.2000
30
0.0
0
VERTEX
5
189
8
Layer1
10
176.4750
20
82.2000
30
0.0
0
VERTEX
5
18a
8
Layer1
10
176.4750
20
81.2000
30
0.0
0
VERTEX
5
18b
8
Layer1
10
190.4750
20
81.2000
30
0.0
0
VERTEX
5
18c
8
Layer1
10
190.4750
20
82.2000
30
0.0
0
SEQEND
5
18d
8
Layer1
0
POLYLINE
5
18e
8
Layer1
66
1
10
0.0
20
0.0
30
0.0
70
1
0
VERTEX
5
18f
8
Layer1
10
209.5250
20
82.2000
30
0.0
0
VERTEX
5
190
8
Layer1
10
210.3250
20
82.2000
30
0.0
0
VERTEX
5
191
8
Layer1
10
210.3250
20
94.2000
30
0.0
0
VERTEX
5
192
8
Layer1
10
209.5250
20
94.2000
30
0.0
0
VERTEX
5
193
8
Layer1
10
209.5250
20
95.2000
30
0.0
0
VERTEX
5
194
8
Layer1
10
195.5250
20
95.2000
30
0.0
0
VERTEX
5
195
8
Layer1
10
195.5250
20
94.2000
30
0.0
0
VERTEX
5
196
8
Layer1
10
194.7250
20
94.2000
30
0.0
0
VERTEX
5
197
8
Layer1
10
194.7250
20
82.2000
30
0.0
0
VERTEX
5
198
8
Layer1
10
195.5250
20
82.2000
30
0.0
0
VERTEX
5
199
8
Layer1
10
195.5250
20
81.2000
30
0.0
0
VERTEX
5
19a
8
Layer1
10
209.5250
20
81.2000
30
0.0
0
VERTEX
5
19b
8
Layer1
10
209.5250
20
82.2000
30
0.0
0
SEQEND
5
19c
8
Layer1
0
POLYLINE
5
19d
8
Layer1
66
1
10
0.0
20
0.0
30
0.0
70
1
0
VERTEX
5
19e
8
Layer1
10
228.5750
20
82.2000
30
0.0
0
VERTEX
5
19f
8
Layer1
10
229.3750
20
82.2000
30
0.0
0
VERTEX
5
1a0
8
Layer1
10
229.3750
20
94.2000
30
0.0
0
VERTEX
5
1a1
8
Layer1
10
228.5750
20
94.2000
30
0.0
0
VERTEX
5
1a2
8
Layer1
10
228.5750
20
95.2000
30
0.0
0
VERTEX
5
1a3
8
Layer1
10
214.5750
20
95.2000
30
0.0
0
VERTEX
5
1a4
8
Layer1
10
214.5750
20
94.2000
30
0.0
0
VERTEX
5
1a5
8
Layer1
10
213.7750
20
94.2000
30
0.0
0
VERTEX
5
1a6
8
Layer1
10
213.7750
20
82.2000
30
0.0
0
VERTEX
5
1a7
8
Layer1
10
214.5750
20
82.2000
30
0.0
0
VERTEX
5
1a8
8
Layer1
10
214.5750
20
81.2000
30
0.0
0
VERTEX
5
1a9
8
Layer1
10
228.5750
20
81.2000
30
0.0
0
VERTEX
5
1aa
8
Layer1
10
228.5750
20
82.2000
30
0.0
0
SEQEND
5
1ab
8
Layer1
0
POLYLINE
5
1ac
8
Layer1
66
1
10
0.0
20
0.0
30
0.0
70
1
0
VERTEX
5
1ad
8
Layer1
10
247.6250
20
82.2000
30
0.0
0
VERTEX
5
1ae
8
Layer1
10
248.4250
20
82.2000
30
0.0
0
VERTEX
5
1af
8
Layer1
10
248.4250
20
94.2000
30
0.0
0
VERTEX
5
1b0
8
Layer1
10
247.6250
20
94.2000
30
0.0
0
VERTEX
5
1b1
8
Layer1
10
247.6250
20
95.2000
30
0.0
0
VERTEX
5
1b2
8
Layer1
10
233.6250
20
95.2000
30
0.0
0
VERTEX
5
1b3
8
Layer1
10
233.6250
20
94.2000
30
0.0
0
VERTEX
5
1b4
8
Layer1
10
232.8250
20
94.2000
30
0.0
0
VERTEX
5
1b5
8
Layer1
10
232.8250
20
82.2000
30
0.0
0
VERTEX
5
1b6
8
Layer1
10
233.6250
20
82.2000
30
0.0
0
VERTEX
5
1b7
8
Layer1
10
233.6250
20
81.2000
30
0.0
0
VERTEX
5
1b8
8
Layer1
10
247.6250
20
81.2000
30
0.0
0
VERTEX
5
1b9
8
Layer1
10
247.6250
20
82.2000
30
0.0
0
SEQEND
5
1ba
8
Layer1
0
POLYLINE
5
1bb
8
Layer1
66
1
10
0.0
20
0.0
30
0.0
70
1
0
VERTEX
5
1bc
8
Layer1
10
258.8000
20
81.4300
30
0.0
0
VERTEX
5
1bd
8
Layer1
10
260.6250
20
81.4300
30
0.0
0
VERTEX
5
1be
8
Layer1
10
260.6250
20
82.2300
30
0.0
0
VERTEX
5
1bf
8
Layer1
10
261.4000
20
82.2300
30
0.0
0
VERTEX
5
1c0
8
Layer1
10
261.4000
20
82.2000
30
0.0
0
VERTEX
5
1c1
8
Layer1
10
262.2000
20
82.2000
30
0.0
0
VERTEX
5
1c2
8
Layer1
10
262.2000
20
81.2000
30
0.0
0
VERTEX
5
1c3
8
Layer1
10
276.2000
20
81.2000
30
0.0
0
VERTEX
5
1c4
8
Layer1
10
276.2000
20
82.2000
30
0.0
0
VERTEX
5
1c5
8
Layer1
10
277.0000
20
82.2000
30
0.0
0
VERTEX
5
1c6
8
Layer1
10
277.0000
20
82.2300
30
0.0
0
VERTEX
5
1c7
8
Layer1
10
277.7750
20
82.2300
30
0.0
0
VERTEX
5
1c8
8
Layer1
10
277.7750
20
81.4300
30
0.0
0
VERTEX
5
1c9
8
Layer1
10
279.6000
20
81.4300
30
0.0
0
VERTEX
5
1ca
8
Layer1
10
279.6000
20
80.2300
30
0.0
0
VERTEX
5
1cb
8
Layer1
10
282.6000
20
80.2300
30
0.0
0
VERTEX
5
1cc
8
Layer1
10
282.6000
20
81.4300
30
0.0
0
VERTEX
5
1cd
8
Layer1
10
284.4250
20
81.4300
30
0.0
0
VERTEX
5
1ce
8
Layer1
10
284.4250
20
87.7000
30
0.0
0
VERTEX
5
1cf
8
Layer1
10
285.3000
20
87.7000
30
0.0
0
VERTEX
5
1d0
8
Layer1
10
285.3000
20
90.5000
30
0.0
0
VERTEX
5
1d1
8
Layer1
10
284.4250
20
90.5000
30
0.0
0
VERTEX
5
1d2
8
Layer1
10
284.4250
20
93.7300
30
0.0
0
VERTEX
5
1d3
8
Layer1
10
277.7750
20
93.7300
30
0.0
0
VERTEX
5
1d4
8
Layer1
10
277.7750
20
92.9300
30
0.0
0
VERTEX
5
1d5
8
Layer1
10
277.0000
20
92.9300
30
0.0
0
VERTEX
5
1d6
8
Layer1
10
277.0000
20
94.2000
30
0.0
0
VERTEX
5
1d7
8
Layer1
10
276.2000
20
94.2000
30
0.0
0
VERTEX
5
1d8
8
Layer1
10
276.2000
20
95.2000
30
0.0
0
VERTEX
5
1d9
8
Layer1
10
262.2000
20
95.2000
30
0.0
0
VERTEX
5
1da
8
Layer1
10
262.2000
20
94.2000
30
0.0
0
VERTEX
5
1db
8
Layer1
10
261.4000
20
94.2000
30
0.0
0
VERTEX
5
1dc
8
Layer1
10
261.4000
20
92.9300
30
0.0
0
VERTEX
5
1dd
8
Layer1
10
260.6250
20
92.9300
30
0.0
0
VERTEX
5
1de
8
Layer1
10
260.6250
20
93.7300
30
0.0
0
VERTEX
5
1df
8
Layer1
10
253.9750
20
93.7300
30
0.0
0
VERTEX
5
1e0
8
Layer1
10
253.9750
20
90.5000
30
0.0
0
VERTEX
5
1e1
8
Layer1
10
253.1000
20
90.5000
30
0.0
0
VERTEX
5
1e2
8
Layer1
10
253.1000
20
87.7000
30
0.0
0
VERTEX
5
1e3
8
Layer1
10
253.9750
20
87.7000
30
0.0
0
VERTEX
5
1e4
8
Layer1
10
253.9750
20
81.4300
30
0.0
0
VERTEX
5
1e5
8
Layer1
10
255.8000
20
81.4300
30
0.0
0
VERTEX
5
1e6
8
Layer1
10
255.8000
20
80.2300
30
0.0
0
VERTEX
5
1e7
8
Layer1
10
258.8000
20
80.2300
30
0.0
0
VERTEX
5
1e8
8
Layer1
10
258.8000
20
81.4300
30
0.0
0
SEQEND
5
1e9
8
Layer1
0
POLYLINE
5
1ea
8
Layer1
66
1
10
0.0
20
0.0
30
0.0
70
1
0
VERTEX
5
1eb
8
Layer1
10
23.7880
20
63.1500
30
0.0
0
VERTEX
5
1ec
8
Layer1
10
24.5880
20
63.1500
30
0.0
0
VERTEX
5
1ed
8
Layer1
10
24.5880
20
75.1500
30
0.0
0
VERTEX
5
1ee
8
Layer1
10
23.7880
20
75.1500
30
0.0
0
VERTEX
5
1ef
8
Layer1
10
23.7880
20
76.1500
30
0.0
0
VERTEX
5
1f0
8
Layer1
10
9.7880
20
76.1500
30
0.0
0
VERTEX
5
1f1
8
Layer1
10
9.7880
20
75.1500
30
0.0
0
VERTEX
5
1f2
8
Layer1
10
8.9880
20
75.1500
30
0.0
0
VERTEX
5
1f3
8
Layer1
10
8.9880
20
63.1500
30
0.0
0
VERTEX
5
1f4
8
Layer1
10
9.7880
20
63.1500
30
0.0
0
VERTEX
5
1f5
8
Layer1
10
9.7880
20
62.1500
30
0.0
0
VERTEX
5
1f6
8
Layer1
10
23.7880
20
62.1500
30
0.0
0
VERTEX
5
1f7
8
Layer1
10
23.7880
20
63.1500
30
0.0
0
SEQEND
5
1f8
8
Layer1
0
POLYLINE
5
1f9
8
Layer1
66
1
10
0.0
20
0.0
30
0.0
70
1
0
VERTEX
5
1fa
8
Layer1
10
47.6000
20
63.1500
30
0.0
0
VERTEX
5
1fb
8
Layer1
10
48.4000
20
63.1500
30
0.0
0
VERTEX
5
1fc
8
Layer1
10
48.4000
20
75.1500
30
0.0
0
VERTEX
5
1fd
8
Layer1
10
47.6000
20
75.1500
30
0.0
0
VERTEX
5
1fe
8
Layer1
10
47.6000
20
76.1500
30
0.0
0
VERTEX
5
1ff
8
Layer1
10
33.6000
20
76.1500
30
0.0
0
VERTEX
5
200
8
Layer1
10
33.6000
20
75.1500
30
0.0
0
VERTEX
5
201
8
Layer1
10
32.8000
20
75.1500
30
0.0
0
VERTEX
5
202
8
Layer1
10
32.8000
20
63.1500
30
0.0
0
VERTEX
5
203
8
Layer1
10
33.6000
20
63.1500
30
0.0
0
VERTEX
5
204
8
Layer1
10
33.6000
20
62.1500
30
0.0
0
VERTEX
5
205
8
Layer1
10
47.6000
20
62.1500
30
0.0
0
VERTEX
5
206
8
Layer1
10
47.6000
20
63.1500
30
0.0
0
SEQEND
5
207
8
Layer1
0
POLYLINE
5
208
8
Layer1
66
1
10
0.0
20
0.0
30
0.0
70
1
0
VERTEX
5
209
8
Layer1
10
66.6500
20
63.1500
30
0.0
0
VERTEX
5
20a
8
Layer1
10
67.4500
20
63.1500
30
0.0
0
VERTEX
5
20b
8
Layer1
10
67.4500
20
75.1500
30
0.0
0
VERTEX
5
20c
8
Layer1
10
66.6500
20
75.1500
30
0.0
0
VERTEX
5
20d
8
Layer1
10
66.6500
20
76.1500
30
0.0
0
VERTEX
5
20e
8
Layer1
10
52.6500
20
76.1500
30
0.0
0
VERTEX
5
20f
8
Layer1
10
52.6500
20
75.1500
30
0.0
0
VERTEX
5
210
8
Layer1
10
51.8500
20
75.1500
30
0.0
0
VERTEX
5
211
8
Layer1
10
51.8500
20
63.1500
30
0.0
0
VERTEX
5
212
8
Layer1
10
52.6500
20
63.1500
30
0.0
0
VERTEX
5
213
8
Layer1
10
52.6500
20
62.1500
30
0.0
0
VERTEX
5
214
8
Layer1
10
66.6500
20
62.1500
30
0.0
0
VERTEX
5
215
8
Layer1
10
66.6500
20
63.1500
30
0.0
0
SEQEND
5
216
8
Layer1
0
POLYLINE
5
217
8
Layer1
66
1
10
0.0
20
0.0
30
0.0
70
1
0
VERTEX
5
218
8
Layer1
10
85.7000
20
63.1500
30
0.0
0
VERTEX
5
219
8
Layer1
10
86.5000
20
63.1500
30
0.0
0
VERTEX
5
21a
8
Layer1
10
86.5000
20
75.1500
30
0.0
0
VERTEX
5
21b
8
Layer1
10
85.7000
20
75.1500
30
0.0
0
VERTEX
5
21c
8
Layer1
10
85.7000
20
76.1500
30
0.0
0
VERTEX
5
21d
8
Layer1
10
71.7000
20
76.1500
30
0.0
0
VERTEX
5
21e
8
Layer1
10
71.7000
20
75.1500
30
0.0
0
VERTEX
5
21f
8
Layer1
10
70.9000
20
75.1500
30
0.0
0
VERTEX
5
220
8
Layer1
10
70.9000
20
63.1500
30
0.0
0
VERTEX
5
221
8
Layer1
10
71.7000
20
63.1500
30
0.0
0
VERTEX
5
222
8
Layer1
10
71.7000
20
62.1500
30
0.0
0
VERTEX
5
223
8
Layer1
10
85.7000
20
62.1500
30
0.0
0
VERTEX
5
224
8
Layer1
10
85.7000
20
63.1500
30
0.0
0
SEQEND
5
225
8
Layer1
0
POLYLINE
5
226
8
Layer1
66
1
10
0.0
20
0.0
30
0.0
70
1
0
VERTEX
5
227
8
Layer1
10
104.7500
20
63.1500
30
0.0
0
VERTEX
5
228
8
Layer1
10
105.5500
20
63.1500
30
0.0
0
VERTEX
5
229
8
Layer1
10
105.5500
20
75.1500
30
0.0
0
VERTEX
5
22a
8
Layer1
10
104.7500
20
75.1500
30
0.0
0
VERTEX
5
22b
8
Layer1
10
104.7500
20
76.1500
30
0.0
0
VERTEX
5
22c
8
Layer1
10
90.7500
20
76.1500
30
0.0
0
VERTEX
5
22d
8
Layer1
10
90.7500
20
75.1500
30
0.0
0
VERTEX
5
22e
8
Layer1
10
89.9500
20
75.1500
30
0.0
0
VERTEX
5
22f
8
Layer1
10
89.9500
20
63.1500
30
0.0
0
VERTEX
5
230
8
Layer1
10
90.7500
20
63.1500
30
0.0
0
VERTEX
5
231
8
Layer1
10
90.7500
20
62.1500
30
0.0
0
VERTEX
5
232
8
Layer1
10
104.7500
20
62.1500
30
0.0
0
VERTEX
5
233
8
Layer1
10
104.7500
20
63.1500
30
0.0
0
SEQEND
5
234
8
Layer1
0
POLYLINE
5
235
8
Layer1
66
1
10
0.0
20
0.0
30
0.0
70
1
0
VERTEX
5
236
8
Layer1
10
123.8000
20
63.1500
30
0.0
0
VERTEX
5
237
8
Layer1
10
124.6000
20
63.1500
30
0.0
0
VERTEX
5
238
8
Layer1
10
124.6000
20
75.1500
30
0.0
0
VERTEX
5
239
8
Layer1
10
123.8000
20
75.1500
30
0.0
0
VERTEX
5
23a
8
Layer1
10
123.8000
20
76.1500
30
0.0
0
VERTEX
5
23b
8
Layer1
10
109.8000
20
76.1500
30
0.0
0
VERTEX
5
23c
8
Layer1
10
109.8000
20
75.1500
30
0.0
0
VERTEX
5
23d
8
Layer1
10
109.0000
20
75.1500
30
0.0
0
VERTEX
5
23e
8
Layer1
10
109.0000
20
63.1500
30
0.0
0
VERTEX
5
23f
8
Layer1
10
109.8000
20
63.1500
30
0.0
0
VERTEX
5
240
8
Layer1
10
109.8000
20
62.1500
30
0.0
0
VERTEX
5
241
8
Layer1
10
123.8000
20
62.1500
30
0.0
0
VERTEX
5
242
8
Layer1
10
123.8000
20
63.1500
30
0.0
0
SEQEND
5
243
8
Layer1
0
POLYLINE
5
244
8
Layer1
66
1
10
0.0
20
0.0
30
0.0
70
1
0
VERTEX
5
245
8
Layer1
10
142.8500
20
63.1500
30
0.0
0
VERTEX
5
246
8
Layer1
10
143.6500
20
63.1500
30
0.0
0
VERTEX
5
247
8
Layer1
10
143.6500
20
75.1500
30
0.0
0
VERTEX
5
248
8
Layer1
10
142.8500
20
75.1500
30
0.0
0
VERTEX
5
249
8
Layer1
10
142.8500
20
76.1500
30
0.0
0
VERTEX
5
24a
8
Layer1
10
128.8500
20
76.1500
30
0.0
0
VERTEX
5
24b
8
Layer1
10
128.8500
20
75.1500
30
0.0
0
VERTEX
5
24c
8
Layer1
10
128.0500
20
75.1500
30
0.0
0
VERTEX
5
24d
8
Layer1
10
128.0500
20
63.1500
30
0.0
0
VERTEX
5
24e
8
Layer1
10
128.8500
20
63.1500
30
0.0
0
VERTEX
5
24f
8
Layer1
10
128.8500
20
62.1500
30
0.0
0
VERTEX
5
250
8
Layer1
10
142.8500
20
62.1500
30
0.0
0
VERTEX
5
251
8
Layer1
10
142.8500
20
63.1500
30
0.0
0
SEQEND
5
252
8
Layer1
0
POLYLINE
5
253
8
Layer1
66
1
10
0.0
20
0.0
30
0.0
70
1
0
VERTEX
5
254
8
Layer1
10
161.9000
20
63.1500
30
0.0
0
VERTEX
5
255
8
Layer1
10
162.7000
20
63.1500
30
0.0
0
VERTEX
5
256
8
Layer1
10
162.7000
20
75.1500
30
0.0
0
VERTEX
5
257
8
Layer1
10
161.9000
20
75.1500
30
0.0
0
VERTEX
5
258
8
Layer1
10
161.9000
20
76.1500
30
0.0
0
VERTEX
5
259
8
Layer1
10
147.9000
20
76.1500
30
0.0
0
VERTEX
5
25a
8
Layer1
10
147.9000
20
75.1500
30
0.0
0
VERTEX
5
25b
8
Layer1
10
147.1000
20
75.1500
30
0.0
0
VERTEX
5
25c
8
Layer1
10
147.1000
20
63.1500
30
0.0
0
VERTEX
5
25d
8
Layer1
10
147.9000
20
63.1500
30
0.0
0
VERTEX
5
25e
8
Layer1
10
147.9000
20
62.1500
30
0.0
0
VERTEX
5
25f
8
Layer1
10
161.9000
20
62.1500
30
0.0
0
VERTEX
5
260
8
Layer1
10
161.9000
20
63.1500
30
0.0
0
SEQEND
5
261
8
Layer1
0
POLYLINE
5
262
8
Layer1
66
1
10
0.0
20
0.0
30
0.0
70
1
0
VERTEX
5
263
8
Layer1
10
180.9500
20
63.1500
30
0.0
0
VERTEX
5
264
8
Layer1
10
181.7500
20
63.1500
30
0.0
0
VERTEX
5
265
8
Layer1
10
181.7500
20
75.1500
30
0.0
0
VERTEX
5
266
8
Layer1
10
180.9500
20
75.1500
30
0.0
0
VERTEX
5
267
8
Layer1
10
180.9500
20
76.1500
30
0.0
0
VERTEX
5
268
8
Layer1
10
166.9500
20
76.1500
30
0.0
0
VERTEX
5
269
8
Layer1
10
166.9500
20
75.1500
30
0.0
0
VERTEX
5
26a
8
Layer1
10
166.1500
20
75.1500
30
0.0
0
VERTEX
5
26b
8
Layer1
10
166.1500
20
63.1500
30
0.0
0
VERTEX
5
26c
8
Layer1
10
166.9500
20
63.1500
30
0.0
0
VERTEX
5
26d
8
Layer1
10
166.9500
20
62.1500
30
0.0
0
VERTEX
5
26e
8
Layer1
10
180.9500
20
62.1500
30
0.0
0
VERTEX
5
26f
8
Layer1
10
180.9500
20
63.1500
30
0.0
0
SEQEND
5
270
8
Layer1
0
POLYLINE
5
271
8
Layer1
66
1
10
0.0
20
0.0
30
0.0
70
1
0
VERTEX
5
272
8
Layer1
10
200.0000
20
63.1500
30
0.0
0
VERTEX
5
273
8
Layer1
10
200.8000
20
63.1500
30
0.0
0
VERTEX
5
274
8
Layer1
10
200.8000
20
75.1500
30
0.0
0
VERTEX
5
275
8
Layer1
10
200.0000
20
75.1500
30
0.0
0
VERTEX
5
276
8
Layer1
10
200.0000
20
76.1500
30
0.0
0
VERTEX
5
277
8
Layer1
10
186.0000
20
76.1500
30
0.0
0
VERTEX
5
278
8
Layer1
10
186.0000
20
75.1500
30
0.0
0
VERTEX
5
279
8
Layer1
10
185.2000
20
75.1500
30
0.0
0
VERTEX
5
27a
8
Layer1
10
185.2000
20
63.1500
30
0.0
0
VERTEX
5
27b
8
Layer1
10
186.0000
20
63.1500
30
0.0
0
VERTEX
5
27c
8
Layer1
10
186.0000
20
62.1500
30
0.0
0
VERTEX
5
27d
8
Layer1
10
200.0000
20
62.1500
30
0.0
0
VERTEX
5
27e
8
Layer1
10
200.0000
20
63.1500
30
0.0
0
SEQEND
5
27f
8
Layer1
0
POLYLINE
5
280
8
Layer1
66
1
10
0.0
20
0.0
30
0.0
70
1
0
VERTEX
5
281
8
Layer1
10
219.0500
20
63.1500
30
0.0
0
VERTEX
5
282
8
Layer1
10
219.8500
20
63.1500
30
0.0
0
VERTEX
5
283
8
Layer1
10
219.8500
20
75.1500
30
0.0
0
VERTEX
5
284
8
Layer1
10
219.0500
20
75.1500
30
0.0
0
VERTEX
5
285
8
Layer1
10
219.0500
20
76.1500
30
0.0
0
VERTEX
5
286
8
Layer1
10
205.0500
20
76.1500
30
0.0
0
VERTEX
5
287
8
Layer1
10
205.0500
20
75.1500
30
0.0
0
VERTEX
5
288
8
Layer1
10
204.2500
20
75.1500
30
0.0
0
VERTEX
5
289
8
Layer1
10
204.2500
20
63.1500
30
0.0
0
VERTEX
5
28a
8
Layer1
10
205.0500
20
63.1500
30
0.0
0
VERTEX
5
28b
8
Layer1
10
205.0500
20
62.1500
30
0.0
0
VERTEX
5
28c
8
Layer1
10
219.0500
20
62.1500
30
0.0
0
VERTEX
5
28d
8
Layer1
10
219.0500
20
63.1500
30
0.0
0
SEQEND
5
28e
8
Layer1
0
POLYLINE
5
28f
8
Layer1
66
1
10
0.0
20
0.0
30
0.0
70
1
0
VERTEX
5
290
8
Layer1
10
238.1000
20
63.1500
30
0.0
0
VERTEX
5
291
8
Layer1
10
238.9000
20
63.1500
30
0.0
0
VERTEX
5
292
8
Layer1
10
238.9000
20
75.1500
30
0.0
0
VERTEX
5
293
8
Layer1
10
238.1000
20
75.1500
30
0.0
0
VERTEX
5
294
8
Layer1
10
238.1000
20
76.1500
30
0.0
0
VERTEX
5
295
8
Layer1
10
224.1000
20
76.1500
30
0.0
0
VERTEX
5
296
8
Layer1
10
224.1000
20
75.1500
30
0.0
0
VERTEX
5
297
8
Layer1
10
223.3000
20
75.1500
30
0.0
0
VERTEX
5
298
8
Layer1
10
223.3000
20
63.1500
30
0.0
0
VERTEX
5
299
8
Layer1
10
224.1000
20
63.1500
30
0.0
0
VERTEX
5
29a
8
Layer1
10
224.1000
20
62.1500
30
0.0
0
VERTEX
5
29b
8
Layer1
10
238.1000
20
62.1500
30
0.0
0
VERTEX
5
29c
8
Layer1
10
238.1000
20
63.1500
30
0.0
0
SEQEND
5
29d
8
Layer1
0
POLYLINE
5
29e
8
Layer1
66
1
10
0.0
20
0.0
30
0.0
70
1
0
VERTEX
5
29f
8
Layer1
10
257.1500
20
63.1500
30
0.0
0
VERTEX
5
2a0
8
Layer1
10
257.9500
20
63.1500
30
0.0
0
VERTEX
5
2a1
8
Layer1
10
257.9500
20
75.1500
30
0.0
0
VERTEX
5
2a2
8
Layer1
10
257.1500
20
75.1500
30
0.0
0
VERTEX
5
2a3
8
Layer1
10
257.1500
20
76.1500
30
0.0
0
VERTEX
5
2a4
8
Layer1
10
243.1500
20
76.1500
30
0.0
0
VERTEX
5
2a5
8
Layer1
10
243.1500
20
75.1500
30
0.0
0
VERTEX
5
2a6
8
Layer1
10
242.3500
20
75.1500
30
0.0
0
VERTEX
5
2a7
8
Layer1
10
242.3500
20
63.1500
30
0.0
0
VERTEX
5
2a8
8
Layer1
10
243.1500
20
63.1500
30
0.0
0
VERTEX
5
2a9
8
Layer1
10
243.1500
20
62.1500
30
0.0
0
VERTEX
5
2aa
8
Layer1
10
257.1500
20
62.1500
30
0.0
0
VERTEX
5
2ab
8
Layer1
10
257.1500
20
63.1500
30
0.0
0
SEQEND
5
2ac
8
Layer1
0
POLYLINE
5
2ad
8
Layer1
66
1
10
0.0
20
0.0
30
0.0
70
1
0
VERTEX
5
2ae
8
Layer1
10
280.9630
20
63.1500
30
0.0
0
VERTEX
5
2af
8
Layer1
10
281.7630
20
63.1500
30
0.0
0
VERTEX
5
2b0
8
Layer1
10
281.7630
20
75.1500
30
0.0
0
VERTEX
5
2b1
8
Layer1
10
280.9630
20
75.1500
30
0.0
0
VERTEX
5
2b2
8
Layer1
10
280.9630
20
76.1500
30
0.0
0
VERTEX
5
2b3
8
Layer1
10
266.9630
20
76.1500
30
0.0
0
VERTEX
5
2b4
8
Layer1
10
266.9630
20
75.1500
30
0.0
0
VERTEX
5
2b5
8
Layer1
10
266.1630
20
75.1500
30
0.0
0
VERTEX
5
2b6
8
Layer1
10
266.1630
20
63.1500
30
0.0
0
VERTEX
5
2b7
8
Layer1
10
266.9630
20
63.1500
30
0.0
0
VERTEX
5
2b8
8
Layer1
10
266.9630
20
62.1500
30
0.0
0
VERTEX
5
2b9
8
Layer1
10
280.9630
20
62.1500
30
0.0
0
VERTEX
5
2ba
8
Layer1
10
280.9630
20
63.1500
30
0.0
0
SEQEND
5
2bb
8
Layer1
0
POLYLINE
5
2bc
8
Layer1
66
1
10
0.0
20
0.0
30
0.0
70
1
0
VERTEX
5
2bd
8
Layer1
10
26.1690
20
44.1000
30
0.0
0
VERTEX
5
2be
8
Layer1
10
26.9690
20
44.1000
30
0.0
0
VERTEX
5
2bf
8
Layer1
10
26.9690
20
56.1000
30
0.0
0
VERTEX
5
2c0
8
Layer1
10
26.1690
20
56.1000
30
0.0
0
VERTEX
5
2c1
8
Layer1
10
26.1690
20
57.1000
30
0.0
0
VERTEX
5
2c2
8
Layer1
10
12.1690
20
57.1000
30
0.0
0
VERTEX
5
2c3
8
Layer1
10
12.1690
20
56.1000
30
0.0
0
VERTEX
5
2c4
8
Layer1
10
11.3690
20
56.1000
30
0.0
0
VERTEX
5
2c5
8
Layer1
10
11.3690
20
44.1000
30
0.0
0
VERTEX
5
2c6
8
Layer1
10
12.1690
20
44.1000
30
0.0
0
VERTEX
5
2c7
8
Layer1
10
12.1690
20
43.1000
30
0.0
0
VERTEX
5
2c8
8
Layer1
10
26.1690
20
43.1000
30
0.0
0
VERTEX
5
2c9
8
Layer1
10
26.1690
20
44.1000
30
0.0
0
SEQEND
5
2ca
8
Layer1
0
POLYLINE
5
2cb
8
Layer1
66
1
10
0.0
20
0.0
30
0.0
70
1
0
VERTEX
5
2cc
8
Layer1
10
52.3630
20
44.1000
30
0.0
0
VERTEX
5
2cd
8
Layer1
10
53.1620
20
44.1000
30
0.0
0
VERTEX
5
2ce
8
Layer1
10
53.1620
20
56.1000
30
0.0
0
VERTEX
5
2cf
8
Layer1
10
52.3630
20
56.1000
30
0.0
0
VERTEX
5
2d0
8
Layer1
10
52.3630
20
57.1000
30
0.0
0
VERTEX
5
2d1
8
Layer1
10
38.3630
20
57.1000
30
0.0
0
VERTEX
5
2d2
8
Layer1
10
38.3630
20
56.1000
30
0.0
0
VERTEX
5
2d3
8
Layer1
10
37.5630
20
56.1000
30
0.0
0
VERTEX
5
2d4
8
Layer1
10
37.5630
20
44.1000
30
0.0
0
VERTEX
5
2d5
8
Layer1
10
38.3630
20
44.1000
30
0.0
0
VERTEX
5
2d6
8
Layer1
10
38.3630
20
43.1000
30
0.0
0
VERTEX
5
2d7
8
Layer1
10
52.3630
20
43.1000
30
0.0
0
VERTEX
5
2d8
8
Layer1
10
52.3630
20
44.1000
30
0.0
0
SEQEND
5
2d9
8
Layer1
0
POLYLINE
5
2da
8
Layer1
66
1
10
0.0
20
0.0
30
0.0
70
1
0
VERTEX
5
2db
8
Layer1
10
71.4130
20
44.1000
30
0.0
0
VERTEX
5
2dc
8
Layer1
10
72.2130
20
44.1000
30
0.0
0
VERTEX
5
2dd
8
Layer1
10
72.2130
20
56.1000
30
0.0
0
VERTEX
5
2de
8
Layer1
10
71.4130
20
56.1000
30
0.0
0
VERTEX
5
2df
8
Layer1
10
71.4130
20
57.1000
30
0.0
0
VERTEX
5
2e0
8
Layer1
10
57.4130
20
57.1000
30
0.0
0
VERTEX
5
2e1
8
Layer1
10
57.4130
20
56.1000
30
0.0
0
VERTEX
5
2e2
8
Layer1
10
56.6130
20
56.1000
30
0.0
0
VERTEX
5
2e3
8
Layer1
10
56.6130
20
44.1000
30
0.0
0
VERTEX
5
2e4
8
Layer1
10
57.4130
20
44.1000
30
0.0
0
VERTEX
5
2e5
8
Layer1
10
57.4130
20
43.1000
30
0.0
0
VERTEX
5
2e6
8
Layer1
10
71.4130
20
43.1000
30
0.0
0
VERTEX
5
2e7
8
Layer1
10
71.4130
20
44.1000
30
0.0
0
SEQEND
5
2e8
8
Layer1
0
POLYLINE
5
2e9
8
Layer1
66
1
10
0.0
20
0.0
30
0.0
70
1
0
VERTEX
5
2ea
8
Layer1
10
90.4630
20
44.1000
30
0.0
0
VERTEX
5
2eb
8
Layer1
10
91.2630
20
44.1000
30
0.0
0
VERTEX
5
2ec
8
Layer1
10
91.2630
20
56.1000
30
0.0
0
VERTEX
5
2ed
8
Layer1
10
90.4630
20
56.1000
30
0.0
0
VERTEX
5
2ee
8
Layer1
10
90.4630
20
57.1000
30
0.0
0
VERTEX
5
2ef
8
Layer1
10
76.4630
20
57.1000
30
0.0
0
VERTEX
5
2f0
8
Layer1
10
76.4630
20
56.1000
30
0.0
0
VERTEX
5
2f1
8
Layer1
10
75.6630
20
56.1000
30
0.0
0
VERTEX
5
2f2
8
Layer1
10
75.6630
20
44.1000
30
0.0
0
VERTEX
5
2f3
8
Layer1
10
76.4630
20
44.1000
30
0.0
0
VERTEX
5
2f4
8
Layer1
10
76.4630
20
43.1000
30
0.0
0
VERTEX
5
2f5
8
Layer1
10
90.4630
20
43.1000
30
0.0
0
VERTEX
5
2f6
8
Layer1
10
90.4630
20
44.1000
30
0.0
0
SEQEND
5
2f7
8
Layer1
0
POLYLINE
5
2f8
8
Layer1
66
1
10
0.0
20
0.0
30
0.0
70
1
0
VERTEX
5
2f9
8
Layer1
10
109.5130
20
44.1000
30
0.0
0
VERTEX
5
2fa
8
Layer1
10
110.3130
20
44.1000
30
0.0
0
VERTEX
5
2fb
8
Layer1
10
110.3130
20
56.1000
30
0.0
0
VERTEX
5
2fc
8
Layer1
10
109.5130
20
56.1000
30
0.0
0
VERTEX
5
2fd
8
Layer1
10
109.5130
20
57.1000
30
0.0
0
VERTEX
5
2fe
8
Layer1
10
95.5130
20
57.1000
30
0.0
0
VERTEX
5
2ff
8
Layer1
10
95.5130
20
56.1000
30
0.0
0
VERTEX
5
300
8
Layer1
10
94.7130
20
56.1000
30
0.0
0
VERTEX
5
301
8
Layer1
10
94.7130
20
44.1000
30
0.0
0
VERTEX
5
302
8
Layer1
10
95.5130
20
44.1000
30
0.0
0
VERTEX
5
303
8
Layer1
10
95.5130
20
43.1000
30
0.0
0
VERTEX
5
304
8
Layer1
10
109.5130
20
43.1000
30
0.0
0
VERTEX
5
305
8
Layer1
10
109.5130
20
44.1000
30
0.0
0
SEQEND
5
306
8
Layer1
0
POLYLINE
5
307
8
Layer1
66
1
10
0.0
20
0.0
30
0.0
70
1
0
VERTEX
5
308
8
Layer1
10
128.5630
20
44.1000
30
0.0
0
VERTEX
5
309
8
Layer1
10
129.3630
20
44.1000
30
0.0
0
VERTEX
5
30a
8
Layer1
10
129.3630
20
56.1000
30
0.0
0
VERTEX
5
30b
8
Layer1
10
128.5630
20
56.1000
30
0.0
0
VERTEX
5
30c
8
Layer1
10
128.5630
20
57.1000
30
0.0
0
VERTEX
5
30d
8
Layer1
10
114.5630
20
57.1000
30
0.0
0
VERTEX
5
30e
8
Layer1
10
114.5630
20
56.1000
30
0.0
0
VERTEX
5
30f
8
Layer1
10
113.7630
20
56.1000
30
0.0
0
VERTEX
5
310
8
Layer1
10
113.7630
20
44.1000
30
0.0
0
VERTEX
5
311
8
Layer1
10
114.5630
20
44.1000
30
0.0
0
VERTEX
5
312
8
Layer1
10
114.5630
20
43.1000
30
0.0
0
VERTEX
5
313
8
Layer1
10
128.5630
20
43.1000
30
0.0
0
VERTEX
5
314
8
Layer1
10
128.5630
20
44.1000
30
0.0
0
SEQEND
5
315
8
Layer1
0
POLYLINE
5
316
8
Layer1
66
1
10
0.0
20
0.0
30
0.0
70
1
0
VERTEX
5
317
8
Layer1
10
147.6130
20
44.1000
30
0.0
0
VERTEX
5
318
8
Layer1
10
148.4130
20
44.1000
30
0.0
0
VERTEX
5
319
8
Layer1
10
148.4130
20
56.1000
30
0.0
0
VERTEX
5
31a
8
Layer1
10
147.6130
20
56.1000
30
0.0
0
VERTEX
5
31b
8
Layer1
10
147.6130
20
57.1000
30
0.0
0
VERTEX
5
31c
8
Layer1
10
133.6130
20
57.1000
30
0.0
0
VERTEX
5
31d
8
Layer1
10
133.6130
20
56.1000
30
0.0
0
VERTEX
5
31e
8
Layer1
10
132.8130
20
56.1000
30
0.0
0
VERTEX
5
31f
8
Layer1
10
132.8130
20
44.1000
30
0.0
0
VERTEX
5
320
8
Layer1
10
133.6130
20
44.1000
30
0.0
0
VERTEX
5
321
8
Layer1
10
133.6130
20
43.1000
30
0.0
0
VERTEX
5
322
8
Layer1
10
147.6130
20
43.1000
30
0.0
0
VERTEX
5
323
8
Layer1
10
147.6130
20
44.1000
30
0.0
0
SEQEND
5
324
8
Layer1
0
POLYLINE
5
325
8
Layer1
66
1
10
0.0
20
0.0
30
0.0
70
1
0
VERTEX
5
326
8
Layer1
10
166.6630
20
44.1000
30
0.0
0
VERTEX
5
327
8
Layer1
10
167.4630
20
44.1000
30
0.0
0
VERTEX
5
328
8
Layer1
10
167.4630
20
56.1000
30
0.0
0
VERTEX
5
329
8
Layer1
10
166.6630
20
56.1000
30
0.0
0
VERTEX
5
32a
8
Layer1
10
166.6630
20
57.1000
30
0.0
0
VERTEX
5
32b
8
Layer1
10
152.6630
20
57.1000
30
0.0
0
VERTEX
5
32c
8
Layer1
10
152.6630
20
56.1000
30
0.0
0
VERTEX
5
32d
8
Layer1
10
151.8630
20
56.1000
30
0.0
0
VERTEX
5
32e
8
Layer1
10
151.8630
20
44.1000
30
0.0
0
VERTEX
5
32f
8
Layer1
10
152.6630
20
44.1000
30
0.0
0
VERTEX
5
330
8
Layer1
10
152.6630
20
43.1000
30
0.0
0
VERTEX
5
331
8
Layer1
10
166.6630
20
43.1000
30
0.0
0
VERTEX
5
332
8
Layer1
10
166.6630
20
44.1000
30
0.0
0
SEQEND
5
333
8
Layer1
0
POLYLINE
5
334
8
Layer1
66
1
10
0.0
20
0.0
30
0.0
70
1
0
VERTEX
5
335
8
Layer1
10
185.7130
20
44.1000
30
0.0
0
VERTEX
5
336
8
Layer1
10
186.5130
20
44.1000
30
0.0
0
VERTEX
5
337
8
Layer1
10
186.5130
20
56.1000
30
0.0
0
VERTEX
5
338
8
Layer1
10
185.7130
20
56.1000
30
0.0
0
VERTEX
5
339
8
Layer1
10
185.7130
20
57.1000
30
0.0
0
VERTEX
5
33a
8
Layer1
10
171.7130
20
57.1000
30
0.0
0
VERTEX
5
33b
8
Layer1
10
171.7130
20
56.1000
30
0.0
0
VERTEX
5
33c
8
Layer1
10
170.9130
20
56.1000
30
0.0
0
VERTEX
5
33d
8
Layer1
10
170.9130
20
44.1000
30
0.0
0
VERTEX
5
33e
8
Layer1
10
171.7130
20
44.1000
30
0.0
0
VERTEX
5
33f
8
Layer1
10
171.7130
20
43.1000
30
0.0
0
VERTEX
5
340
8
Layer1
10
185.7130
20
43.1000
30
0.0
0
VERTEX
5
341
8
Layer1
10
185.7130
20
44.1000
30
0.0
0
SEQEND
5
342
8
Layer1
0
POLYLINE
5
343
8
Layer1
66
1
10
0.0
20
0.0
30
0.0
70
1
0
VERTEX
5
344
8
Layer1
10
204.7630
20
44.1000
30
0.0
0
VERTEX
5
345
8
Layer1
10
205.5630
20
44.1000
30
0.0
0
VERTEX
5
346
8
Layer1
10
205.5630
20
56.1000
30
0.0
0
VERTEX
5
347
8
Layer1
10
204.7630
20
56.1000
30
0.0
0
VERTEX
5
348
8
Layer1
10
204.7630
20
57.1000
30
0.0
0
VERTEX
5
349
8
Layer1
10
190.7630
20
57.1000
30
0.0
0
VERTEX
5
34a
8
Layer1
10
190.7630
20
56.1000
30
0.0
0
VERTEX
5
34b
8
Layer1
10
189.9630
20
56.1000
30
0.0
0
VERTEX
5
34c
8
Layer1
10
189.9630
20
44.1000
30
0.0
0
VERTEX
5
34d
8
Layer1
10
190.7630
20
44.1000
30
0.0
0
VERTEX
5
34e
8
Layer1
10
190.7630
20
43.1000
30
0.0
0
VERTEX
5
34f
8
Layer1
10
204.7630
20
43.1000
30
0.0
0
VERTEX
5
350
8
Layer1
10
204.7630
20
44.1000
30
0.0
0
SEQEND
5
351
8
Layer1
0
POLYLINE
5
352
8
Layer1
66
1
10
0.0
20
0.0
30
0.0
70
1
0
VERTEX
5
353
8
Layer1
10
223.8130
20
44.1000
30
0.0
0
VERTEX
5
354
8
Layer1
10
224.6130
20
44.1000
30
0.0
0
VERTEX
5
355
8
Layer1
10
224.6130
20
56.1000
30
0.0
0
VERTEX
5
356
8
Layer1
10
223.8130
20
56.1000
30
0.0
0
VERTEX
5
357
8
Layer1
10
223.8130
20
57.1000
30
0.0
0
VERTEX
5
358
8
Layer1
10
209.8130
20
57.1000
30
0.0
0
VERTEX
5
359
8
Layer1
10
209.8130
20
56.1000
30
0.0
0
VERTEX
5
35a
8
Layer1
10
209.0130
20
56.1000
30
0.0
0
VERTEX
5
35b
8
Layer1
10
209.0130
20
44.1000
30
0.0
0
VERTEX
5
35c
8
Layer1
10
209.8130
20
44.1000
30
0.0
0
VERTEX
5
35d
8
Layer1
10
209.8130
20
43.1000
30
0.0
0
VERTEX
5
35e
8
Layer1
10
223.8130
20
43.1000
30
0.0
0
VERTEX
5
35f
8
Layer1
10
223.8130
20
44.1000
30
0.0
0
SEQEND
5
360
8
Layer1
0
POLYLINE
5
361
8
Layer1
66
1
10
0.0
20
0.0
30
0.0
70
1
0
VERTEX
5
362
8
Layer1
10
242.8630
20
44.1000
30
0.0
0
VERTEX
5
363
8
Layer1
10
243.6630
20
44.1000
30
0.0
0
VERTEX
5
364
8
Layer1
10
243.6630
20
56.1000
30
0.0
0
VERTEX
5
365
8
Layer1
10
242.8630
20
56.1000
30
0.0
0
VERTEX
5
366
8
Layer1
10
242.8630
20
57.1000
30
0.0
0
VERTEX
5
367
8
Layer1
10
228.8630
20
57.1000
30
0.0
0
VERTEX
5
368
8
Layer1
10
228.8630
20
56.1000
30
0.0
0
VERTEX
5
369
8
Layer1
10
228.0630
20
56.1000
30
0.0
0
VERTEX
5
36a
8
Layer1
10
228.0630
20
44.1000
30
0.0
0
VERTEX
5
36b
8
Layer1
10
228.8630
20
44.1000
30
0.0
0
VERTEX
5
36c
8
Layer1
10
228.8630
20
43.1000
30
0.0
0
VERTEX
5
36d
8
Layer1
10
242.8630
20
43.1000
30
0.0
0
VERTEX
5
36e
8
Layer1
10
242.8630
20
44.1000
30
0.0
0
SEQEND
5
36f
8
Layer1
0
POLYLINE
5
370
8
Layer1
66
1
10
0.0
20
0.0
30
0.0
70
1
0
VERTEX
5
371
8
Layer1
10
256.4190
20
43.3300
30
0.0
0
VERTEX
5
372
8
Layer1
10
258.2440
20
43.3300
30
0.0
0
VERTEX
5
373
8
Layer1
10
258.2440
20
44.1300
30
0.0
0
VERTEX
5
374
8
Layer1
10
259.0190
20
44.1300
30
0.0
0
VERTEX
5
375
8
Layer1
10
259.0190
20
44.1000
30
0.0
0
VERTEX
5
376
8
Layer1
10
259.8190
20
44.1000
30
0.0
0
VERTEX
5
377
8
Layer1
10
259.8190
20
43.1000
30
0.0
0
VERTEX
5
378
8
Layer1
10
273.8190
20
43.1000
30
0.0
0
VERTEX
5
379
8
Layer1
10
273.8190
20
44.1000
30
0.0
0
VERTEX
5
37a
8
Layer1
10
274.6190
20
44.1000
30
0.0
0
VERTEX
5
37b
8
Layer1
10
274.6190
20
44.1300
30
0.0
0
VERTEX
5
37c
8
Layer1
10
275.3940
20
44.1300
30
0.0
0
VERTEX
5
37d
8
Layer1
10
275.3940
20
43.3300
30
0.0
0
VERTEX
5
37e
8
Layer1
10
277.2190
20
43.3300
30
0.0
0
VERTEX
5
37f
8
Layer1
10
277.2190
20
42.1300
30
0.0
0
VERTEX
5
380
8
Layer1
10
280.2190
20
42.1300
30
0.0
0
VERTEX
5
381
8
Layer1
10
280.2190
20
43.3300
30
0.0
0
VERTEX
5
382
8
Layer1
10
282.0440
20
43.3300
30
0.0
0
VERTEX
5
383
8
Layer1
10
282.0440
20
49.6000
30
0.0
0
VERTEX
5
384
8
Layer1
10
282.9190
20
49.6000
30
0.0
0
VERTEX
5
385
8
Layer1
10
282.9190
20
52.4000
30
0.0
0
VERTEX
5
386
8
Layer1
10
282.0440
20
52.4000
30
0.0
0
VERTEX
5
387
8
Layer1
10
282.0440
20
55.6300
30
0.0
0
VERTEX
5
388
8
Layer1
10
275.3940
20
55.6300
30
0.0
0
VERTEX
5
389
8
Layer1
10
275.3940
20
54.8300
30
0.0
0
VERTEX
5
38a
8
Layer1
10
274.6190
20
54.8300
30
0.0
0
VERTEX
5
38b
8
Layer1
10
274.6190
20
56.1000
30
0.0
0
VERTEX
5
38c
8
Layer1
10
273.8190
20
56.1000
30
0.0
0
VERTEX
5
38d
8
Layer1
10
273.8190
20
57.1000
30
0.0
0
VERTEX
5
38e
8
Layer1
10
259.8190
20
57.1000
30
0.0
0
VERTEX
5
38f
8
Layer1
10
259.8190
20
56.1000
30
0.0
0
VERTEX
5
390
8
Layer1
10
259.0190
20
56.1000
30
0.0
0
VERTEX
5
391
8
Layer1
10
259.0190
20
54.8300
30
0.0
0
VERTEX
5
392
8
Layer1
10
258.2440
20
54.8300
30
0.0
0
VERTEX
5
393
8
Layer1
10
258.2440
20
55.6300
30
0.0
0
VERTEX
5
394
8
Layer1
10
251.5940
20
55.6300
30
0.0
0
VERTEX
5
395
8
Layer1
10
251.5940
20
52.4000
30
0.0
0
VERTEX
5
396
8
Layer1
10
250.7190
20
52.4000
30
0.0
0
VERTEX
5
397
8
Layer1
10
250.7190
20
49.6000
30
0.0
0
VERTEX
5
398
8
Layer1
10
251.5940
20
49.6000
30
0.0
0
VERTEX
5
399
8
Layer1
10
251.5940
20
43.3300
30
0.0
0
VERTEX
5
39a
8
Layer1
10
253.4190
20
43.3300
30
0.0
0
VERTEX
5
39b
8
Layer1
10
253.4190
20
42.1300
30
0.0
0
VERTEX
5
39c
8
Layer1
10
256.4190
20
42.1300
30
0.0
0
VERTEX
5
39d
8
Layer1
10
256.4190
20
43.3300
30
0.0
0
SEQEND
5
39e
8
Layer1
0
POLYLINE
5
39f
8
Layer1
66
1
10
0.0
20
0.0
30
0.0
70
1
0
VERTEX
5
3a0
8
Layer1
10
13.5310
20
24.2800
30
0.0
0
VERTEX
5
3a1
8
Layer1
10
15.3560
20
24.2800
30
0.0
0
VERTEX
5
3a2
8
Layer1
10
15.3560
20
25.0800
30
0.0
0
VERTEX
5
3a3
8
Layer1
10
16.1310
20
25.0800
30
0.0
0
VERTEX
5
3a4
8
Layer1
10
16.1310
20
25.0500
30
0.0
0
VERTEX
5
3a5
8
Layer1
10
16.9310
20
25.0500
30
0.0
0
VERTEX
5
3a6
8
Layer1
10
16.9310
20
24.0500
30
0.0
0
VERTEX
5
3a7
8
Layer1
10
30.9310
20
24.0500
30
0.0
0
VERTEX
5
3a8
8
Layer1
10
30.9310
20
25.0500
30
0.0
0
VERTEX
5
3a9
8
Layer1
10
31.7310
20
25.0500
30
0.0
0
VERTEX
5
3aa
8
Layer1
10
31.7310
20
25.0800
30
0.0
0
VERTEX
5
3ab
8
Layer1
10
32.5060
20
25.0800
30
0.0
0
VERTEX
5
3ac
8
Layer1
10
32.5060
20
24.2800
30
0.0
0
VERTEX
5
3ad
8
Layer1
10
34.3310
20
24.2800
30
0.0
0
VERTEX
5
3ae
8
Layer1
10
34.3310
20
23.0800
30
0.0
0
VERTEX
5
3af
8
Layer1
10
37.3310
20
23.0800
30
0.0
0
VERTEX
5
3b0
8
Layer1
10
37.3310
20
24.2800
30
0.0
0
VERTEX
5
3b1
8
Layer1
10
39.1560
20
24.2800
30
0.0
0
VERTEX
5
3b2
8
Layer1
10
39.1560
20
30.5500
30
0.0
0
VERTEX
5
3b3
8
Layer1
10
40.0310
20
30.5500
30
0.0
0
VERTEX
5
3b4
8
Layer1
10
40.0310
20
33.3500
30
0.0
0
VERTEX
5
3b5
8
Layer1
10
39.1560
20
33.3500
30
0.0
0
VERTEX
5
3b6
8
Layer1
10
39.1560
20
36.5800
30
0.0
0
VERTEX
5
3b7
8
Layer1
10
32.5060
20
36.5800
30
0.0
0
VERTEX
5
3b8
8
Layer1
10
32.5060
20
35.7800
30
0.0
0
VERTEX
5
3b9
8
Layer1
10
31.7310
20
35.7800
30
0.0
0
VERTEX
5
3ba
8
Layer1
10
31.7310
20
37.0500
30
0.0
0
VERTEX
5
3bb
8
Layer1
10
30.9310
20
37.0500
30
0.0
0
VERTEX
5
3bc
8
Layer1
10
30.9310
20
38.0500
30
0.0
0
VERTEX
5
3bd
8
Layer1
10
16.9310
20
38.0500
30
0.0
0
VERTEX
5
3be
8
Layer1
10
16.9310
20
37.0500
30
0.0
0
VERTEX
5
3bf
8
Layer1
10
16.1310
20
37.0500
30
0.0
0
VERTEX
5
3c0
8
Layer1
10
16.1310
20
35.7800
30
0.0
0
VERTEX
5
3c1
8
Layer1
10
15.3560
20
35.7800
30
0.0
0
VERTEX
5
3c2
8
Layer1
10
15.3560
20
36.5800
30
0.0
0
VERTEX
5
3c3
8
Layer1
10
8.7060
20
36.5800
30
0.0
0
VERTEX
5
3c4
8
Layer1
10
8.7060
20
33.3500
30
0.0
0
VERTEX
5
3c5
8
Layer1
10
7.8310
20
33.3500
30
0.0
0
VERTEX
5
3c6
8
Layer1
10
7.8310
20
30.5500
30
0.0
0
VERTEX
5
3c7
8
Layer1
10
8.7060
20
30.5500
30
0.0
0
VERTEX
5
3c8
8
Layer1
10
8.7060
20
24.2800
30
0.0
0
VERTEX
5
3c9
8
Layer1
10
10.5310
20
24.2800
30
0.0
0
VERTEX
5
3ca
8
Layer1
10
10.5310
20
23.0800
30
0.0
0
VERTEX
5
3cb
8
Layer1
10
13.5310
20
23.0800
30
0.0
0
VERTEX
5
3cc
8
Layer1
10
13.5310
20
24.2800
30
0.0
0
SEQEND
5
3cd
8
Layer1
0
POLYLINE
5
3ce
8
Layer1
66
1
10
0.0
20
0.0
30
0.0
70
1
0
VERTEX
5
3cf
8
Layer1
10
61.8880
20
25.0500
30
0.0
0
VERTEX
5
3d0
8
Layer1
10
62.6880
20
25.0500
30
0.0
0
VERTEX
5
3d1
8
Layer1
10
62.6880
20
37.0500
30
0.0
0
VERTEX
5
3d2
8
Layer1
10
61.8880
20
37.0500
30
0.0
0
VERTEX
5
3d3
8
Layer1
10
61.8880
20
38.0500
30
0.0
0
VERTEX
5
3d4
8
Layer1
10
47.8880
20
38.0500
30
0.0
0
VERTEX
5
3d5
8
Layer1
10
47.8880
20
37.0500
30
0.0
0
VERTEX
5
3d6
8
Layer1
10
47.0880
20
37.0500
30
0.0
0
VERTEX
5
3d7
8
Layer1
10
47.0880
20
25.0500
30
0.0
0
VERTEX
5
3d8
8
Layer1
10
47.8880
20
25.0500
30
0.0
0
VERTEX
5
3d9
8
Layer1
10
47.8880
20
24.0500
30
0.0
0
VERTEX
5
3da
8
Layer1
10
61.8880
20
24.0500
30
0.0
0
VERTEX
5
3db
8
Layer1
10
61.8880
20
25.0500
30
0.0
0
SEQEND
5
3dc
8
Layer1
0
POLYLINE
5
3dd
8
Layer1
66
1
10
0.0
20
0.0
30
0.0
70
1
0
VERTEX
5
3de
8
Layer1
10
80.9380
20
25.0500
30
0.0
0
VERTEX
5
3df
8
Layer1
10
81.7380
20
25.0500
30
0.0
0
VERTEX
5
3e0
8
Layer1
10
81.7380
20
37.0500
30
0.0
0
VERTEX
5
3e1
8
Layer1
10
80.9380
20
37.0500
30
0.0
0
VERTEX
5
3e2
8
Layer1
10
80.9380
20
38.0500
30
0.0
0
VERTEX
5
3e3
8
Layer1
10
66.9380
20
38.0500
30
0.0
0
VERTEX
5
3e4
8
Layer1
10
66.9380
20
37.0500
30
0.0
0
VERTEX
5
3e5
8
Layer1
10
66.1380
20
37.0500
30
0.0
0
VERTEX
5
3e6
8
Layer1
10
66.1380
20
25.0500
30
0.0
0
VERTEX
5
3e7
8
Layer1
10
66.9380
20
25.0500
30
0.0
0
VERTEX
5
3e8
8
Layer1
10
66.9380
20
24.0500
30
0.0
0
VERTEX
5
3e9
8
Layer1
10
80.9380
20
24.0500
30
0.0
0
VERTEX
5
3ea
8
Layer1
10
80.9380
20
25.0500
30
0.0
0
SEQEND
5
3eb
8
Layer1
0
POLYLINE
5
3ec
8
Layer1
66
1
10
0.0
20
0.0
30
0.0
70
1
0
VERTEX
5
3ed
8
Layer1
10
99.9880
20
25.0500
30
0.0
0
VERTEX
5
3ee
8
Layer1
10
100.7880
20
25.0500
30
0.0
0
VERTEX
5
3ef
8
Layer1
10
100.7880
20
37.0500
30
0.0
0
VERTEX
5
3f0
8
Layer1
10
99.9880
20
37.0500
30
0.0
0
VERTEX
5
3f1
8
Layer1
10
99.9880
20
38.0500
30
0.0
0
VERTEX
5
3f2
8
Layer1
10
85.9880
20
38.0500
30
0.0
0
VERTEX
5
3f3
8
Layer1
10
85.9880
20
37.0500
30
0.0
0
VERTEX
5
3f4
8
Layer1
10
85.1880
20
37.0500
30
0.0
0
VERTEX
5
3f5
8
Layer1
10
85.1880
20
25.0500
30
0.0
0
VERTEX
5
3f6
8
Layer1
10
85.9880
20
25.0500
30
0.0
0
VERTEX
5
3f7
8
Layer1
10
85.9880
20
24.0500
30
0.0
0
VERTEX
5
3f8
8
Layer1
10
99.9880
20
24.0500
30
0.0
0
VERTEX
5
3f9
8
Layer1
10
99.9880
20
25.0500
30
0.0
0
SEQEND
5
3fa
8
Layer1
0
POLYLINE
5
3fb
8
Layer1
66
1
10
0.0
20
0.0
30
0.0
70
1
0
VERTEX
5
3fc
8
Layer1
10
119.0380
20
25.0500
30
0.0
0
VERTEX
5
3fd
8
Layer1
10
119.8380
20
25.0500
30
0.0
0
VERTEX
5
3fe
8
Layer1
10
119.8380
20
37.0500
30
0.0
0
VERTEX
5
3ff
8
Layer1
10
119.0380
20
37.0500
30
0.0
0
VERTEX
5
400
8
Layer1
10
119.0380
20
38.0500
30
0.0
0
VERTEX
5
401
8
Layer1
10
105.0380
20
38.0500
30
0.0
0
VERTEX
5
402
8
Layer1
10
105.0380
20
37.0500
30
0.0
0
VERTEX
5
403
8
Layer1
10
104.2380
20
37.0500
30
0.0
0
VERTEX
5
404
8
Layer1
10
104.2380
20
25.0500
30
0.0
0
VERTEX
5
405
8
Layer1
10
105.0380
20
25.0500
30
0.0
0
VERTEX
5
406
8
Layer1
10
105.0380
20
24.0500
30
0.0
0
VERTEX
5
407
8
Layer1
10
119.0380
20
24.0500
30
0.0
0
VERTEX
5
408
8
Layer1
10
119.0380
20
25.0500
30
0.0
0
SEQEND
5
409
8
Layer1
0
POLYLINE
5
40a
8
Layer1
66
1
10
0.0
20
0.0
30
0.0
70
1
0
VERTEX
5
40b
8
Layer1
10
138.0880
20
25.0500
30
0.0
0
VERTEX
5
40c
8
Layer1
10
138.8880
20
25.0500
30
0.0
0
VERTEX
5
40d
8
Layer1
10
138.8880
20
37.0500
30
0.0
0
VERTEX
5
40e
8
Layer1
10
138.0880
20
37.0500
30
0.0
0
VERTEX
5
40f
8
Layer1
10
138.0880
20
38.0500
30
0.0
0
VERTEX
5
410
8
Layer1
10
124.0880
20
38.0500
30
0.0
0
VERTEX
5
411
8
Layer1
10
124.0880
20
37.0500
30
0.0
0
VERTEX
5
412
8
Layer1
10
123.2880
20
37.0500
30
0.0
0
VERTEX
5
413
8
Layer1
10
123.2880
20
25.0500
30
0.0
0
VERTEX
5
414
8
Layer1
10
124.0880
20
25.0500
30
0.0
0
VERTEX
5
415
8
Layer1
10
124.0880
20
24.0500
30
0.0
0
VERTEX
5
416
8
Layer1
10
138.0880
20
24.0500
30
0.0
0
VERTEX
5
417
8
Layer1
10
138.0880
20
25.0500
30
0.0
0
SEQEND
5
418
8
Layer1
0
POLYLINE
5
419
8
Layer1
66
1
10
0.0
20
0.0
30
0.0
70
1
0
VERTEX
5
41a
8
Layer1
10
157.1380
20
25.0500
30
0.0
0
VERTEX
5
41b
8
Layer1
10
157.9380
20
25.0500
30
0.0
0
VERTEX
5
41c
8
Layer1
10
157.9380
20
37.0500
30
0.0
0
VERTEX
5
41d
8
Layer1
10
157.1380
20
37.0500
30
0.0
0
VERTEX
5
41e
8
Layer1
10
157.1380
20
38.0500
30
0.0
0
VERTEX
5
41f
8
Layer1
10
143.1380
20
38.0500
30
0.0
0
VERTEX
5
420
8
Layer1
10
143.1380
20
37.0500
30
0.0
0
VERTEX
5
421
8
Layer1
10
142.3380
20
37.0500
30
0.0
0
VERTEX
5
422
8
Layer1
10
142.3380
20
25.0500
30
0.0
0
VERTEX
5
423
8
Layer1
10
143.1380
20
25.0500
30
0.0
0
VERTEX
5
424
8
Layer1
10
143.1380
20
24.0500
30
0.0
0
VERTEX
5
425
8
Layer1
10
157.1380
20
24.0500
30
0.0
0
VERTEX
5
426
8
Layer1
10
157.1380
20
25.0500
30
0.0
0
SEQEND
5
427
8
Layer1
0
POLYLINE
5
428
8
Layer1
66
1
10
0.0
20
0.0
30
0.0
70
1
0
VERTEX
5
429
8
Layer1
10
176.1880
20
25.0500
30
0.0
0
VERTEX
5
42a
8
Layer1
10
176.9880
20
25.0500
30
0.0
0
VERTEX
5
42b
8
Layer1
10
176.9880
20
37.0500
30
0.0
0
VERTEX
5
42c
8
Layer1
10
176.1880
20
37.0500
30
0.0
0
VERTEX
5
42d
8
Layer1
10
176.1880
20
38.0500
30
0.0
0
VERTEX
5
42e
8
Layer1
10
162.1880
20
38.0500
30
0.0
0
VERTEX
5
42f
8
Layer1
10
162.1880
20
37.0500
30
0.0
0
VERTEX
5
430
8
Layer1
10
161.3880
20
37.0500
30
0.0
0
VERTEX
5
431
8
Layer1
10
161.3880
20
25.0500
30
0.0
0
VERTEX
5
432
8
Layer1
10
162.1880
20
25.0500
30
0.0
0
VERTEX
5
433
8
Layer1
10
162.1880
20
24.0500
30
0.0
0
VERTEX
5
434
8
Layer1
10
176.1880
20
24.0500
30
0.0
0
VERTEX
5
435
8
Layer1
10
176.1880
20
25.0500
30
0.0
0
SEQEND
5
436
8
Layer1
0
POLYLINE
5
437
8
Layer1
66
1
10
0.0
20
0.0
30
0.0
70
1
0
VERTEX
5
438
8
Layer1
10
195.2380
20
25.0500
30
0.0
0
VERTEX
5
439
8
Layer1
10
196.0380
20
25.0500
30
0.0
0
VERTEX
5
43a
8
Layer1
10
196.0380
20
37.0500
30
0.0
0
VERTEX
5
43b
8
Layer1
10
195.2380
20
37.0500
30
0.0
0
VERTEX
5
43c
8
Layer1
10
195.2380
20
38.0500
30
0.0
0
VERTEX
5
43d
8
Layer1
10
181.2380
20
38.0500
30
0.0
0
VERTEX
5
43e
8
Layer1
10
181.2380
20
37.0500
30
0.0
0
VERTEX
5
43f
8
Layer1
10
180.4380
20
37.0500
30
0.0
0
VERTEX
5
440
8
Layer1
10
180.4380
20
25.0500
30
0.0
0
VERTEX
5
441
8
Layer1
10
181.2380
20
25.0500
30
0.0
0
VERTEX
5
442
8
Layer1
10
181.2380
20
24.0500
30
0.0
0
VERTEX
5
443
8
Layer1
10
195.2380
20
24.0500
30
0.0
0
VERTEX
5
444
8
Layer1
10
195.2380
20
25.0500
30
0.0
0
SEQEND
5
445
8
Layer1
0
POLYLINE
5
446
8
Layer1
66
1
10
0.0
20
0.0
30
0.0
70
1
0
VERTEX
5
447
8
Layer1
10
214.2880
20
25.0500
30
0.0
0
VERTEX
5
448
8
Layer1
10
215.0880
20
25.0500
30
0.0
0
VERTEX
5
449
8
Layer1
10
215.0880
20
37.0500
30
0.0
0
VERTEX
5
44a
8
Layer1
10
214.2880
20
37.0500
30
0.0
0
VERTEX
5
44b
8
Layer1
10
214.2880
20
38.0500
30
0.0
0
VERTEX
5
44c
8
Layer1
10
200.2880
20
38.0500
30
0.0
0
VERTEX
5
44d
8
Layer1
10
200.2880
20
37.0500
30
0.0
0
VERTEX
5
44e
8
Layer1
10
199.4880
20
37.0500
30
0.0
0
VERTEX
5
44f
8
Layer1
10
199.4880
20
25.0500
30
0.0
0
VERTEX
5
450
8
Layer1
10
200.2880
20
25.0500
30
0.0
0
VERTEX
5
451
8
Layer1
10
200.2880
20
24.0500
30
0.0
0
VERTEX
5
452
8
Layer1
10
214.2880
20
24.0500
30
0.0
0
VERTEX
5
453
8
Layer1
10
214.2880
20
25.0500
30
0.0
0
SEQEND
5
454
8
Layer1
0
POLYLINE
5
455
8
Layer1
66
1
10
0.0
20
0.0
30
0.0
70
1
0
VERTEX
5
456
8
Layer1
10
233.3380
20
25.0500
30
0.0
0
VERTEX
5
457
8
Layer1
10
234.1380
20
25.0500
30
0.0
0
VERTEX
5
458
8
Layer1
10
234.1380
20
37.0500
30
0.0
0
VERTEX
5
459
8
Layer1
10
233.3380
20
37.0500
30
0.0
0
VERTEX
5
45a
8
Layer1
10
233.3380
20
38.0500
30
0.0
0
VERTEX
5
45b
8
Layer1
10
219.3380
20
38.0500
30
0.0
0
VERTEX
5
45c
8
Layer1
10
219.3380
20
37.0500
30
0.0
0
VERTEX
5
45d
8
Layer1
10
218.5380
20
37.0500
30
0.0
0
VERTEX
5
45e
8
Layer1
10
218.5380
20
25.0500
30
0.0
0
VERTEX
5
45f
8
Layer1
10
219.3380
20
25.0500
30
0.0
0
VERTEX
5
460
8
Layer1
10
219.3380
20
24.0500
30
0.0
0
VERTEX
5
461
8
Layer1
10
233.3380
20
24.0500
30
0.0
0
VERTEX
5
462
8
Layer1
10
233.3380
20
25.0500
30
0.0
0
SEQEND
5
463
8
Layer1
0
POLYLINE
5
464
8
Layer1
66
1
10
0.0
20
0.0
30
0.0
70
1
0
VERTEX
5
465
8
Layer1
10
251.6560
20
24.2800
30
0.0
0
VERTEX
5
466
8
Layer1
10
253.4810
20
24.2800
30
0.0
0
VERTEX
5
467
8
Layer1
10
253.4810
20
25.0800
30
0.0
0
VERTEX
5
468
8
Layer1
10
254.2560
20
25.0800
30
0.0
0
VERTEX
5
469
8
Layer1
10
254.2560
20
25.0500
30
0.0
0
VERTEX
5
46a
8
Layer1
10
255.0560
20
25.0500
30
0.0
0
VERTEX
5
46b
8
Layer1
10
255.0560
20
24.0500
30
0.0
0
VERTEX
5
46c
8
Layer1
10
269.0560
20
24.0500
30
0.0
0
VERTEX
5
46d
8
Layer1
10
269.0560
20
25.0500
30
0.0
0
VERTEX
5
46e
8
Layer1
10
269.8560
20
25.0500
30
0.0
0
VERTEX
5
46f
8
Layer1
10
269.8560
20
25.0800
30
0.0
0
VERTEX
5
470
8
Layer1
10
270.6310
20
25.0800
30
0.0
0
VERTEX
5
471
8
Layer1
10
270.6310
20
24.2800
30
0.0
0
VERTEX
5
472
8
Layer1
10
272.4560
20
24.2800
30
0.0
0
VERTEX
5
473
8
Layer1
10
272.4560
20
23.0800
30
0.0
0
VERTEX
5
474
8
Layer1
10
275.4560
20
23.0800
30
0.0
0
VERTEX
5
475
8
Layer1
10
275.4560
20
24.2800
30
0.0
0
VERTEX
5
476
8
Layer1
10
277.2810
20
24.2800
30
0.0
0
VERTEX
5
477
8
Layer1
10
277.2810
20
30.5500
30
0.0
0
VERTEX
5
478
8
Layer1
10
278.1560
20
30.5500
30
0.0
0
VERTEX
5
479
8
Layer1
10
278.1560
20
33.3500
30
0.0
0
VERTEX
5
47a
8
Layer1
10
277.2810
20
33.3500
30
0.0
0
VERTEX
5
47b
8
Layer1
10
277.2810
20
36.5800
30
0.0
0
VERTEX
5
47c
8
Layer1
10
270.6310
20
36.5800
30
0.0
0
VERTEX
5
47d
8
Layer1
10
270.6310
20
35.7800
30
0.0
0
VERTEX
5
47e
8
Layer1
10
269.8560
20
35.7800
30
0.0
0
VERTEX
5
47f
8
Layer1
10
269.8560
20
37.0500
30
0.0
0
VERTEX
5
480
8
Layer1
10
269.0560
20
37.0500
30
0.0
0
VERTEX
5
481
8
Layer1
10
269.0560
20
38.0500
30
0.0
0
VERTEX
5
482
8
Layer1
10
255.0560
20
38.0500
30
0.0
0
VERTEX
5
483
8
Layer1
10
255.0560
20
37.0500
30
0.0
0
VERTEX
5
484
8
Layer1
10
254.2560
20
37.0500
30
0.0
0
VERTEX
5
485
8
Layer1
10
254.2560
20
35.7800
30
0.0
0
VERTEX
5
486
8
Layer1
10
253.4810
20
35.7800
30
0.0
0
VERTEX
5
487
8
Layer1
10
253.4810
20
36.5800
30
0.0
0
VERTEX
5
488
8
Layer1
10
246.8310
20
36.5800
30
0.0
0
VERTEX
5
489
8
Layer1
10
246.8310
20
33.3500
30
0.0
0
VERTEX
5
48a
8
Layer1
10
245.9560
20
33.3500
30
0.0
0
VERTEX
5
48b
8
Layer1
10
245.9560
20
30.5500
30
0.0
0
VERTEX
5
48c
8
Layer1
10
246.8310
20
30.5500
30
0.0
0
VERTEX
5
48d
8
Layer1
10
246.8310
20
24.2800
30
0.0
0
VERTEX
5
48e
8
Layer1
10
248.6560
20
24.2800
30
0.0
0
VERTEX
5
48f
8
Layer1
10
248.6560
20
23.0800
30
0.0
0
VERTEX
5
490
8
Layer1
10
251.6560
20
23.0800
30
0.0
0
VERTEX
5
491
8
Layer1
10
251.6560
20
24.2800
30
0.0
0
SEQEND
5
492
8
Layer1
0
POLYLINE
5
493
8
Layer1
66
1
10
0.0
20
0.0
30
0.0
70
1
0
VERTEX
5
494
8
Layer1
10
21.4060
20
6.0000
30
0.0
0
VERTEX
5
495
8
Layer1
10
22.2060
20
6.0000
30
0.0
0
VERTEX
5
496
8
Layer1
10
22.2060
20
18.0000
30
0.0
0
VERTEX
5
497
8
Layer1
10
21.4060
20
18.0000
30
0.0
0
VERTEX
5
498
8
Layer1
10
21.4060
20
19.0000
30
0.0
0
VERTEX
5
499
8
Layer1
10
7.4060
20
19.0000
30
0.0
0
VERTEX
5
49a
8
Layer1
10
7.4060
20
18.0000
30
0.0
0
VERTEX
5
49b
8
Layer1
10
6.6060
20
18.0000
30
0.0
0
VERTEX
5
49c
8
Layer1
10
6.6060
20
6.0000
30
0.0
0
VERTEX
5
49d
8
Layer1
10
7.4060
20
6.0000
30
0.0
0
VERTEX
5
49e
8
Layer1
10
7.4060
20
5.0000
30
0.0
0
VERTEX
5
49f
8
Layer1
10
21.4060
20
5.0000
30
0.0
0
VERTEX
5
4a0
8
Layer1
10
21.4060
20
6.0000
30
0.0
0
SEQEND
5
4a1
8
Layer1
0
POLYLINE
5
4a2
8
Layer1
66
1
10
0.0
20
0.0
30
0.0
70
1
0
VERTEX
5
4a3
8
Layer1
10
42.8380
20
6.0000
30
0.0
0
VERTEX
5
4a4
8
Layer1
10
43.6370
20
6.0000
30
0.0
0
VERTEX
5
4a5
8
Layer1
10
43.6370
20
18.0000
30
0.0
0
VERTEX
5
4a6
8
Layer1
10
42.8380
20
18.0000
30
0.0
0
VERTEX
5
4a7
8
Layer1
10
42.8380
20
19.0000
30
0.0
0
VERTEX
5
4a8
8
Layer1
10
28.8380
20
19.0000
30
0.0
0
VERTEX
5
4a9
8
Layer1
10
28.8380
20
18.0000
30
0.0
0
VERTEX
5
4aa
8
Layer1
10
28.0370
20
18.0000
30
0.0
0
VERTEX
5
4ab
8
Layer1
10
28.0370
20
6.0000
30
0.0
0
VERTEX
5
4ac
8
Layer1
10
28.8380
20
6.0000
30
0.0
0
VERTEX
5
4ad
8
Layer1
10
28.8380
20
5.0000
30
0.0
0
VERTEX
5
4ae
8
Layer1
10
42.8380
20
5.0000
30
0.0
0
VERTEX
5
4af
8
Layer1
10
42.8380
20
6.0000
30
0.0
0
SEQEND
5
4b0
8
Layer1
0
POLYLINE
5
4b1
8
Layer1
66
1
10
0.0
20
0.0
30
0.0
70
1
0
VERTEX
5
4b2
8
Layer1
10
64.2690
20
6.0000
30
0.0
0
VERTEX
5
4b3
8
Layer1
10
65.0690
20
6.0000
30
0.0
0
VERTEX
5
4b4
8
Layer1
10
65.0690
20
18.0000
30
0.0
0
VERTEX
5
4b5
8
Layer1
10
64.2690
20
18.0000
30
0.0
0
VERTEX
5
4b6
8
Layer1
10
64.2690
20
19.0000
30
0.0
0
VERTEX
5
4b7
8
Layer1
10
50.2690
20
19.0000
30
0.0
0
VERTEX
5
4b8
8
Layer1
10
50.2690
20
18.0000
30
0.0
0
VERTEX
5
4b9
8
Layer1
10
49.4690
20
18.0000
30
0.0
0
VERTEX
5
4ba
8
Layer1
10
49.4690
20
6.0000
30
0.0
0
VERTEX
5
4bb
8
Layer1
10
50.2690
20
6.0000
30
0.0
0
VERTEX
5
4bc
8
Layer1
10
50.2690
20
5.0000
30
0.0
0
VERTEX
5
4bd
8
Layer1
10
64.2690
20
5.0000
30
0.0
0
VERTEX
5
4be
8
Layer1
10
64.2690
20
6.0000
30
0.0
0
SEQEND
5
4bf
8
Layer1
0
POLYLINE
5
4c0
8
Layer1
66
1
10
0.0
20
0.0
30
0.0
70
1
0
VERTEX
5
4c1
8
Layer1
10
88.0810
20
6.0000
30
0.0
0
VERTEX
5
4c2
8
Layer1
10
88.8810
20
6.0000
30
0.0
0
VERTEX
5
4c3
8
Layer1
10
88.8810
20
18.0000
30
0.0
0
VERTEX
5
4c4
8
Layer1
10
88.0810
20
18.0000
30
0.0
0
VERTEX
5
4c5
8
Layer1
10
88.0810
20
19.0000
30
0.0
0
VERTEX
5
4c6
8
Layer1
10
74.0810
20
19.0000
30
0.0
0
VERTEX
5
4c7
8
Layer1
10
74.0810
20
18.0000
30
0.0
0
VERTEX
5
4c8
8
Layer1
10
73.2810
20
18.0000
30
0.0
0
VERTEX
5
4c9
8
Layer1
10
73.2810
20
6.0000
30
0.0
0
VERTEX
5
4ca
8
Layer1
10
74.0810
20
6.0000
30
0.0
0
VERTEX
5
4cb
8
Layer1
10
74.0810
20
5.0000
30
0.0
0
VERTEX
5
4cc
8
Layer1
10
88.0810
20
5.0000
30
0.0
0
VERTEX
5
4cd
8
Layer1
10
88.0810
20
6.0000
30
0.0
0
SEQEND
5
4ce
8
Layer1
0
POLYLINE
5
4cf
8
Layer1
66
1
10
0.0
20
0.0
30
0.0
70
1
0
VERTEX
5
4d0
8
Layer1
10
104.0190
20
5.2300
30
0.0
0
VERTEX
5
4d1
8
Layer1
10
105.8440
20
5.2300
30
0.0
0
VERTEX
5
4d2
8
Layer1
10
105.8440
20
9.7000
30
0.0
0
VERTEX
5
4d3
8
Layer1
10
144.7190
20
9.7000
30
0.0
0
VERTEX
5
4d4
8
Layer1
10
144.7190
20
6.0000
30
0.0
0
VERTEX
5
4d5
8
Layer1
10
145.5190
20
6.0000
30
0.0
0
VERTEX
5
4d6
8
Layer1
10
145.5190
20
5.0000
30
0.0
0
VERTEX
5
4d7
8
Layer1
10
159.5190
20
5.0000
30
0.0
0
VERTEX
5
4d8
8
Layer1
10
159.5190
20
6.0000
30
0.0
0
VERTEX
5
4d9
8
Layer1
10
160.3190
20
6.0000
30
0.0
0
VERTEX
5
4da
8
Layer1
10
160.3190
20
9.7000
30
0.0
0
VERTEX
5
4db
8
Layer1
10
199.1940
20
9.7000
30
0.0
0
VERTEX
5
4dc
8
Layer1
10
199.1940
20
5.2300
30
0.0
0
VERTEX
5
4dd
8
Layer1
10
201.0190
20
5.2300
30
0.0
0
VERTEX
5
4de
8
Layer1
10
201.0190
20
4.0300
30
0.0
0
VERTEX
5
4df
8
Layer1
10
204.0190
20
4.0300
30
0.0
0
VERTEX
5
4e0
8
Layer1
10
204.0190
20
5.2300
30
0.0
0
VERTEX
5
4e1
8
Layer1
10
205.8440
20
5.2300
30
0.0
0
VERTEX
5
4e2
8
Layer1
10
205.8440
20
11.5000
30
0.0
0
VERTEX
5
4e3
8
Layer1
10
206.7440
20
11.5000
30
0.0
0
VERTEX
5
4e4
8
Layer1
10
206.7440
20
14.3000
30
0.0
0
VERTEX
5
4e5
8
Layer1
10
205.8440
20
14.3000
30
0.0
0
VERTEX
5
4e6
8
Layer1
10
205.8440
20
17.5300
30
0.0
0
VERTEX
5
4e7
8
Layer1
10
199.1940
20
17.5300
30
0.0
0
VERTEX
5
4e8
8
Layer1
10
199.1940
20
14.3000
30
0.0
0
VERTEX
5
4e9
8
Layer1
10
160.3190
20
14.3000
30
0.0
0
VERTEX
5
4ea
8
Layer1
10
160.3190
20
18.0000
30
0.0
0
VERTEX
5
4eb
8
Layer1
10
159.5190
20
18.0000
30
0.0
0
VERTEX
5
4ec
8
Layer1
10
159.5190
20
19.0000
30
0.0
0
VERTEX
5
4ed
8
Layer1
10
145.5190
20
19.0000
30
0.0
0
VERTEX
5
4ee
8
Layer1
10
145.5190
20
18.0000
30
0.0
0
VERTEX
5
4ef
8
Layer1
10
144.7190
20
18.0000
30
0.0
0
VERTEX
5
4f0
8
Layer1
10
144.7190
20
14.3000
30
0.0
0
VERTEX
5
4f1
8
Layer1
10
105.8440
20
14.3000
30
0.0
0
VERTEX
5
4f2
8
Layer1
10
105.8440
20
17.5300
30
0.0
0
VERTEX
5
4f3
8
Layer1
10
99.1940
20
17.5300
30
0.0
0
VERTEX
5
4f4
8
Layer1
10
99.1940
20
14.3000
30
0.0
0
VERTEX
5
4f5
8
Layer1
10
98.2940
20
14.3000
30
0.0
0
VERTEX
5
4f6
8
Layer1
10
98.2940
20
11.5000
30
0.0
0
VERTEX
5
4f7
8
Layer1
10
99.1940
20
11.5000
30
0.0
0
VERTEX
5
4f8
8
Layer1
10
99.1940
20
5.2300
30
0.0
0
VERTEX
5
4f9
8
Layer1
10
101.0190
20
5.2300
30
0.0
0
VERTEX
5
4fa
8
Layer1
10
101.0190
20
4.0300
30
0.0
0
VERTEX
5
4fb
8
Layer1
10
104.0190
20
4.0300
30
0.0
0
VERTEX
5
4fc
8
Layer1
10
104.0190
20
5.2300
30
0.0
0
SEQEND
5
4fd
8
Layer1
0
POLYLINE
5
4fe
8
Layer1
66
1
10
0.0
20
0.0
30
0.0
70
1
0
VERTEX
5
4ff
8
Layer1
10
228.5750
20
6.0000
30
0.0
0
VERTEX
5
500
8
Layer1
10
229.3750
20
6.0000
30
0.0
0
VERTEX
5
501
8
Layer1
10
229.3750
20
18.0000
30
0.0
0
VERTEX
5
502
8
Layer1
10
228.5750
20
18.0000
30
0.0
0
VERTEX
5
503
8
Layer1
10
228.5750
20
19.0000
30
0.0
0
VERTEX
5
504
8
Layer1
10
214.5750
20
19.0000
30
0.0
0
VERTEX
5
505
8
Layer1
10
214.5750
20
18.0000
30
0.0
0
VERTEX
5
506
8
Layer1
10
213.7750
20
18.0000
30
0.0
0
VERTEX
5
507
8
Layer1
10
213.7750
20
6.0000
30
0.0
0
VERTEX
5
508
8
Layer1
10
214.5750
20
6.0000
30
0.0
0
VERTEX
5
509
8
Layer1
10
214.5750
20
5.0000
30
0.0
0
VERTEX
5
50a
8
Layer1
10
228.5750
20
5.0000
30
0.0
0
VERTEX
5
50b
8
Layer1
10
228.5750
20
6.0000
30
0.0
0
SEQEND
5
50c
8
Layer1
0
POLYLINE
5
50d
8
Layer1
66
1
10
0.0
20
0.0
30
0.0
70
1
0
VERTEX
5
50e
8
Layer1
10
247.6250
20
6.0000
30
0.0
0
VERTEX
5
50f
8
Layer1
10
248.4250
20
6.0000
30
0.0
0
VERTEX
5
510
8
Layer1
10
248.4250
20
18.0000
30
0.0
0
VERTEX
5
511
8
Layer1
10
247.6250
20
18.0000
30
0.0
0
VERTEX
5
512
8
Layer1
10
247.6250
20
19.0000
30
0.0
0
VERTEX
5
513
8
Layer1
10
233.6250
20
19.0000
30
0.0
0
VERTEX
5
514
8
Layer1
10
233.6250
20
18.0000
30
0.0
0
VERTEX
5
515
8
Layer1
10
232.8250
20
18.0000
30
0.0
0
VERTEX
5
516
8
Layer1
10
232.8250
20
6.0000
30
0.0
0
VERTEX
5
517
8
Layer1
10
233.6250
20
6.0000
30
0.0
0
VERTEX
5
518
8
Layer1
10
233.6250
20
5.0000
30
0.0
0
VERTEX
5
519
8
Layer1
10
247.6250
20
5.0000
30
0.0
0
VERTEX
5
51a
8
Layer1
10
247.6250
20
6.0000
30
0.0
0
SEQEND
5
51b
8
Layer1
0
POLYLINE
5
51c
8
Layer1
66
1
10
0.0
20
0.0
30
0.0
70
1
0
VERTEX
5
51d
8
Layer1
10
266.6750
20
6.0000
30
0.0
0
VERTEX
5
51e
8
Layer1
10
267.4750
20
6.0000
30
0.0
0
VERTEX
5
51f
8
Layer1
10
267.4750
20
18.0000
30
0.0
0
VERTEX
5
520
8
Layer1
10
266.6750
20
18.0000
30
0.0
0
VERTEX
5
521
8
Layer1
10
266.6750
20
19.0000
30
0.0
0
VERTEX
5
522
8
Layer1
10
252.6750
20
19.0000
30
0.0
0
VERTEX
5
523
8
Layer1
10
252.6750
20
18.0000
30
0.0
0
VERTEX
5
524
8
Layer1
10
251.8750
20
18.0000
30
0.0
0
VERTEX
5
525
8
Layer1
10
251.8750
20
6.0000
30
0.0
0
VERTEX
5
526
8
Layer1
10
252.6750
20
6.0000
30
0.0
0
VERTEX
5
527
8
Layer1
10
252.6750
20
5.0000
30
0.0
0
VERTEX
5
528
8
Layer1
10
266.6750
20
5.0000
30
0.0
0
VERTEX
5
529
8
Layer1
10
266.6750
20
6.0000
30
0.0
0
SEQEND
5
52a
8
Layer1
0
POLYLINE
5
52b
8
Layer1
66
1
10
0.0
20
0.0
30
0.0
70
1
0
VERTEX
5
52c
8
Layer1
10
285.7250
20
6.0000
30
0.0
0
VERTEX
5
52d
8
Layer1
10
286.5250
20
6.0000
30
0.0
0
VERTEX
5
52e
8
Layer1
10
286.5250
20
18.0000
30
0.0
0
VERTEX
5
52f
8
Layer1
10
285.7250
20
18.0000
30
0.0
0
VERTEX
5
530
8
Layer1
10
285.7250
20
19.0000
30
0.0
0
VERTEX
5
531
8
Layer1
10
271.7250
20
19.0000
30
0.0
0
VERTEX
5
532
8
Layer1
10
271.7250
20
18.0000
30
0.0
0
VERTEX
5
533
8
Layer1
10
270.9250
20
18.0000
30
0.0
0
VERTEX
5
534
8
Layer1
10
270.9250
20
6.0000
30
0.0
0
VERTEX
5
535
8
Layer1
10
271.7250
20
6.0000
30
0.0
0
VERTEX
5
536
8
Layer1
10
271.7250
20
5.0000
30
0.0
0
VERTEX
5
537
8
Layer1
10
285.7250
20
5.0000
30
0.0
0
VERTEX
5
538
8
Layer1
10
285.7250
20
6.0000
30
0.0
0
SEQEND
5
539
8
Layer1
0
ENDSEC
0
EOF
